<svg width="674" height="560" viewBox="0 0 674 560" fill="none" xmlns="http://www.w3.org/2000/svg">
    <path d="M567.171 67.2583H542.841V91.5926H567.171V67.2583Z" fill="#FFF4DE"/>
    <path d="M556.314 64.2603H553.699V70.371H556.314V64.2603Z" fill="#F1B104"/>
    <path d="M527.721 67.2583V116.688C527.721 118.896 526.844 121.013 525.283 122.575C523.722 124.136 521.605 125.013 519.397 125.013H476.618C478.75 124.909 480.761 123.988 482.232 122.441C483.704 120.894 484.525 118.84 484.524 116.705V67.2583H527.721Z" fill="#D6EAF2"/>
    <path d="M506.108 64.2603H503.494V70.371H506.108V64.2603Z" fill="#F1B104"/>
    <path d="M492.813 79.2053H518.396" stroke="#639AD6" stroke-width="3" stroke-miterlimit="10"/>
    <path d="M492.813 85.5505H518.396" stroke="#639AD6" stroke-width="3" stroke-miterlimit="10"/>
    <path d="M492.813 91.8901H518.396" stroke="#639AD6" stroke-width="3" stroke-miterlimit="10"/>
    <path d="M492.813 98.2356H518.396" stroke="#639AD6" stroke-width="3" stroke-miterlimit="10"/>
    <path d="M492.813 104.581H518.396" stroke="#639AD6" stroke-width="3" stroke-miterlimit="10"/>
    <path d="M365.944 386.545L333.702 543.154H336.786L379.926 386.585" fill="#D6EAF2"/>
    <path d="M480.285 382.849L513.162 543.153H510.175L467.076 386.517" fill="#D6EAF2"/>
    <path d="M435.509 386.545L467.745 543.154H464.661L421.521 386.585" fill="#D6EAF2"/>
    <path d="M515.49 309.629L496.04 367.446C494.065 373.316 490.297 378.417 485.267 382.029C480.237 385.641 474.2 387.581 468.008 387.575H357.873C351.681 387.58 345.644 385.64 340.614 382.028C335.585 378.416 331.816 373.316 329.841 367.446L313.823 319.888C313.176 317.964 312.996 315.913 313.297 313.906C313.599 311.898 314.374 309.991 315.559 308.343C316.743 306.694 318.303 305.351 320.109 304.425C321.915 303.498 323.915 303.015 325.945 303.015H338.273C341.092 303.027 343.82 302.017 345.951 300.171C348.082 298.326 349.472 295.771 349.864 292.979L357.049 241.97C357.878 236.077 360.807 230.682 365.298 226.779C369.788 222.875 375.538 220.725 381.488 220.725H480.651C484.181 220.726 487.671 221.483 490.884 222.947C494.096 224.412 496.958 226.548 499.275 229.212C501.592 231.877 503.31 235.007 504.314 238.392C505.318 241.778 505.585 245.339 505.096 248.836L498.929 292.847C498.751 294.111 498.847 295.398 499.209 296.622C499.571 297.845 500.191 298.977 501.028 299.941C501.864 300.904 502.898 301.677 504.058 302.208C505.219 302.738 506.48 303.013 507.756 303.015H510.73C511.527 303.013 512.312 303.201 513.022 303.563C513.731 303.926 514.344 304.452 514.809 305.099C515.274 305.745 515.579 306.494 515.697 307.281C515.816 308.069 515.745 308.874 515.49 309.629Z" fill="#D6EAF2"/>
    <path d="M507.184 302.397H499.037C493.711 302.352 488.506 303.986 484.162 307.067C479.817 310.148 476.553 314.52 474.833 319.562L460.88 358.332C459.092 363.641 455.684 368.256 451.135 371.525C446.587 374.794 441.127 376.554 435.526 376.555H334.017" stroke="white" stroke-width="3" stroke-miterlimit="10"/>
    <path d="M420.675 90.8889C445.737 91.4611 435.503 117.815 449.724 122.433C459.793 125.7 472.459 130.512 472.19 150.715C471.967 167.382 470.519 169.705 483.236 176.823C500.662 186.55 495.959 219.335 460.828 218.168" stroke="#41465A" stroke-width="3" stroke-miterlimit="10"/>
    <path d="M382.472 109.856C383.084 108.186 388.192 86.0998 421.47 89.9906C446.366 92.9029 436.344 121.071 448.128 125.047C457.064 128.057 470.8 132.629 469.329 152.78C468.117 169.402 466.532 171.662 478.803 179.495C495.622 190.274 488.974 222.694 453.975 219.432C418.976 216.171 366.591 217.424 364.222 210.638C362.506 205.66 347.707 176.199 369.234 163.44C375.71 159.601 387.666 154.937 386.396 147.476C383.822 132.371 376.053 127.353 382.472 109.856Z" fill="#252954"/>
    <path d="M424.29 140.885C424.29 140.885 422.442 164.79 432.013 172.119L405.961 171.65C405.961 171.65 406.573 145.176 405.961 140.896L424.29 140.885Z" fill="#FFB3A4"/>
    <path d="M411.813 160.344C421.687 160.344 429.691 154.496 429.691 147.282C429.691 140.067 421.687 134.219 411.813 134.219C401.94 134.219 393.936 140.067 393.936 147.282C393.936 154.496 401.94 160.344 411.813 160.344Z" fill="#242854"/>
    <path d="M430.823 132.136C430.823 132.136 425.606 154.92 406.831 154.119C394.348 153.587 387.895 132.045 386.985 121.729C386.224 113.118 397.449 106.498 405.669 108.243C415.795 110.394 416.344 127.199 426.985 126.22L430.823 132.136Z" fill="#FFB3A4"/>
    <path d="M400.423 123.194C396.098 124.297 391.885 125.799 387.838 127.68C387.205 125.55 386.771 123.366 386.539 121.157C385.967 114.863 391.808 109.651 398.192 107.963C398.861 108.18 399.554 108.42 400.28 108.689C403.581 109.908 398.318 116.225 400.423 123.194Z" fill="#EA786C"/>
    <path d="M404.371 107.808C407.843 109.089 400.171 115.818 401.848 123.256C394.488 124.845 387.218 126.826 380.069 129.19C380.069 129.19 373.496 119.091 378.69 112.208C383.885 105.325 393.209 103.688 404.371 107.808Z" fill="#252954"/>
    <path d="M427.122 133.241C430.607 133.241 433.432 130.415 433.432 126.93C433.432 123.444 430.607 120.619 427.122 120.619C423.637 120.619 420.812 123.444 420.812 126.93C420.812 130.415 423.637 133.241 427.122 133.241Z" fill="#FFB3A4"/>
    <path d="M374.136 183.946C382.66 179.644 391.962 185.474 387.351 199.029C384.01 208.841 354.2 266.808 350.819 271.843C330.287 283.332 249.751 270.292 249.751 270.292C249.751 270.292 238.549 275.07 235.3 275.11C233.876 275.11 225.209 273.485 225.209 273.485C225.209 273.485 224.928 272.483 226.261 271.236C227.594 269.989 236.913 271.396 233.607 268.375C232.136 267.042 224.454 269.605 221.021 272.649C217.589 275.693 216.13 273.113 216.13 273.113C216.13 273.113 219.522 267.357 220.706 266.338C221.891 265.32 229.591 261.097 234.711 260.617C238.424 260.268 247.296 261.309 251.919 262.631C269.905 259.141 306.632 254.317 330.476 255.73C330.442 255.759 355.201 193.507 374.136 183.946Z" fill="#FFB3A4"/>
    <path d="M430.76 163.691C430.76 163.691 436.252 173.71 466.4 184.061C466.4 184.061 466.292 197.026 461.4 214.077C453.66 241.06 443.666 278.789 443.815 293.648C443.815 293.648 411.304 303.014 377.769 293.648C377.769 293.648 378.021 248.63 375.166 246.593C372.312 244.556 364.938 225.674 367.38 216.308C369.823 206.942 379.548 182.481 379.548 182.481C379.548 182.481 399.451 176.525 401.155 164.71C411.027 165.621 420.974 165.279 430.76 163.691Z" fill="#FFF4DE"/>
    <path d="M261.919 466.317C256.713 485.673 239.854 504.2 240.895 508.36C241.936 512.519 248.429 517.617 246.73 524.174C245.54 528.752 236.009 526.532 228.624 530.211C221.239 533.89 223.658 537.712 211.794 538.124C199.929 538.536 189.935 538.124 189.935 538.124C189.935 538.124 190.141 533.547 195.552 532.505C200.964 531.464 218.63 521.062 224.042 500.035C229.053 480.581 230.701 466.317 230.701 466.317H261.919Z" fill="#FFB3A4"/>
    <path d="M261.919 466.317C260.38 472.039 257.697 477.669 254.997 482.91C242.937 482.017 234.619 479.071 229.162 476.399C230.266 470.105 230.701 466.345 230.701 466.345L261.919 466.317Z" fill="#3A193F"/>
    <path d="M378.009 288.161L369.508 296.698C366.385 297.527 281.689 324.379 270.242 339.988C258.795 355.597 221.547 469.023 221.547 469.023C221.547 469.023 237.36 480.129 275.66 475.946C275.66 475.946 297.502 430.322 300.625 367.669C300.625 367.669 397.391 374.335 411.544 351.019C425.697 327.703 413.644 292.532 413.644 292.532C413.644 292.532 388.73 291.428 378.009 288.161Z" fill="#A1CBE2"/>
    <path d="M245.472 538.324H183.825C182.286 538.324 181.039 539.572 181.039 541.111V541.391C181.039 542.93 182.286 544.177 183.825 544.177H245.472C247.01 544.177 248.258 542.93 248.258 541.391V541.111C248.258 539.572 247.01 538.324 245.472 538.324Z" fill="#F9C543"/>
    <path d="M220.993 538.324C220.993 538.324 213.224 529.244 211.765 520.284C211.251 517.114 201.399 521.708 195.862 523.986C180.811 530.171 183.963 538.324 183.963 538.324H220.993Z" fill="#F9C543"/>
    <path d="M332.798 467.187C336.523 475.323 347.432 502.398 347.672 511.484C348.061 524.861 324.395 536.287 322.793 537.62C320.133 539.835 323.279 541.546 323.279 541.546C323.279 541.546 367.529 536.51 372.478 534.222C377.426 531.933 366.03 519.3 364.88 510.008C363.73 500.716 365.384 474.911 363.341 463.416L332.798 467.187Z" fill="#FFB3A4"/>
    <path d="M364.457 480.415C357.701 482.629 348.874 485.055 340.43 485.954C337.507 478.121 334.446 470.791 332.793 467.187L363.37 463.416C364.131 467.65 364.383 473.835 364.457 480.415Z" fill="#3A193F"/>
    <path d="M443.866 288.161C443.866 288.161 471.269 336.658 451.086 360.792C429.296 386.854 338.508 377.059 338.508 377.059C338.508 377.059 367.844 408.888 372.214 477.365C372.214 477.365 342.221 482.99 323.92 478.201C323.92 478.201 297.57 390.087 295.419 365.404C292.719 334.369 392.815 313.548 392.815 313.548L396.859 291.233C396.859 291.233 417.477 294.169 443.866 288.161Z" fill="#A1CBE2"/>
    <path d="M375.844 534.399L314.661 541.944C313.134 542.132 312.049 543.523 312.237 545.05L312.271 545.328C312.46 546.856 313.85 547.941 315.378 547.753L376.561 540.208C378.088 540.02 379.173 538.629 378.985 537.102L378.951 536.823C378.762 535.296 377.372 534.21 375.844 534.399Z" fill="#F9C543"/>
    <path d="M351.517 537.415C351.517 537.415 345.796 523.682 331.872 525.399C317.948 527.115 314.767 541.952 314.767 541.952L351.517 537.415Z" fill="#F9C543"/>
    <path d="M489.335 277.639C473.723 287.543 397.803 256.715 397.803 256.715C397.803 256.715 393.227 263.3 388.175 263.3C383.124 263.3 378.45 261.332 375.818 263.369C373.187 265.406 370.441 268.713 368.427 269.005C366.013 269.4 363.539 269.173 361.236 268.347C361.236 268.347 362.953 265.292 364.755 262.351C363.147 263.432 360.962 265.841 359.743 266.785C359.267 267.185 358.671 267.416 358.05 267.44C357.428 267.464 356.816 267.279 356.311 266.917C356.311 266.917 359.835 262.036 361.196 260.743C362.558 259.45 366.425 257.773 368.873 256.875C371.562 255.834 387.117 249.757 394.794 248.865C402.94 247.915 469.284 254.432 469.284 254.432C469.284 254.432 454.175 216.783 453.197 207.028C451.755 192.638 457.871 183.901 465.211 183.889C478.277 183.838 502.281 269.428 489.335 277.639Z" fill="#FFB3A4"/>
    <path d="M363.685 268.953C363.628 268.955 363.572 268.939 363.525 268.908C363.491 268.887 363.463 268.859 363.44 268.827C363.418 268.795 363.402 268.759 363.393 268.721C363.385 268.682 363.384 268.643 363.391 268.604C363.397 268.566 363.412 268.529 363.433 268.496C363.959 267.672 368.622 260.4 370.269 259.581C373.13 258.174 376.854 256.314 376.854 256.314L377.123 256.852L370.538 260.119C369.268 260.749 365.344 266.613 363.936 268.816C363.91 268.859 363.873 268.894 363.829 268.918C363.785 268.942 363.735 268.954 363.685 268.953Z" fill="#DB7800"/>
    <path d="M366.957 268.954C366.903 268.953 366.85 268.939 366.804 268.911C366.758 268.883 366.721 268.843 366.695 268.796C366.67 268.748 366.658 268.694 366.661 268.641C366.664 268.587 366.681 268.535 366.711 268.49C366.894 268.215 371.259 261.842 372.93 261.018C375.79 259.604 379.514 257.75 379.514 257.75L379.783 258.283C379.783 258.283 376.053 260.142 373.198 261.55C371.923 262.179 368.439 267.014 367.203 268.828C367.175 268.867 367.138 268.898 367.095 268.92C367.053 268.942 367.005 268.954 366.957 268.954Z" fill="#DB7800"/>
    <path d="M630.854 280.202H51.9794V292.612H630.854V280.202Z" fill="#FFF4DE"/>
    <path d="M614.813 501.254H542.732V509.956H614.813V501.254Z" fill="#F4E8CE"/>
    <path d="M604.791 293.024H552.658V304.559H604.791V293.024Z" fill="#FFF4DE"/>
    <path d="M624.968 544.172C623.729 544.172 622.529 543.739 621.577 542.946C620.625 542.154 619.981 541.053 619.756 539.835L579.923 323.075C579.871 322.794 579.723 322.541 579.504 322.358C579.285 322.176 579.009 322.076 578.724 322.076C578.439 322.076 578.163 322.176 577.944 322.358C577.725 322.541 577.577 322.794 577.526 323.075L537.686 539.835C537.463 541.054 536.819 542.155 535.866 542.948C534.914 543.74 533.714 544.173 532.475 544.172C531.698 544.172 530.931 544.001 530.228 543.672C529.524 543.343 528.902 542.863 528.405 542.266C527.907 541.669 527.547 540.97 527.35 540.219C527.153 539.468 527.123 538.682 527.263 537.918L570.226 304.153H587.217L630.179 537.918C630.32 538.682 630.291 539.468 630.095 540.22C629.898 540.972 629.538 541.671 629.04 542.268C628.543 542.865 627.92 543.345 627.216 543.674C626.512 544.003 625.745 544.173 624.968 544.172Z" fill="#FFF4DE"/>
    <path d="M140.204 501.254H68.1233V509.956H140.204V501.254Z" fill="#F4E8CE"/>
    <path d="M130.176 293.024H78.043V304.559H130.176V293.024Z" fill="#FFF4DE"/>
    <path d="M150.359 544.172C149.12 544.172 147.921 543.739 146.969 542.946C146.016 542.154 145.372 541.053 145.147 539.835L105.308 323.08C105.257 322.8 105.109 322.547 104.89 322.364C104.671 322.182 104.395 322.082 104.11 322.082C103.825 322.082 103.549 322.182 103.33 322.364C103.111 322.547 102.963 322.8 102.911 323.08L63.0777 539.835C62.853 541.053 62.2086 542.154 61.2564 542.946C60.3043 543.739 59.1047 544.172 57.8661 544.172C57.0891 544.173 56.3214 544.003 55.6175 543.674C54.9136 543.345 54.2908 542.865 53.7933 542.268C53.2958 541.671 52.9359 540.972 52.7391 540.22C52.5423 539.468 52.5134 538.682 52.6545 537.918L95.6115 304.153H112.608L155.57 537.918C155.711 538.682 155.681 539.468 155.484 540.219C155.286 540.97 154.926 541.669 154.429 542.266C153.932 542.863 153.31 543.343 152.606 543.672C151.903 544.001 151.136 544.172 150.359 544.172Z" fill="#FFF4DE"/>
    <path d="M212.972 176.377C216.016 176.377 218.121 173.413 218.121 170.295V152.832C218.122 152.026 217.964 151.229 217.656 150.484C217.349 149.74 216.898 149.063 216.329 148.493C215.76 147.923 215.084 147.471 214.34 147.162C213.597 146.853 212.799 146.693 211.994 146.693H172.241C171.435 146.693 170.637 146.851 169.892 147.16C169.148 147.469 168.472 147.921 167.902 148.491C167.333 149.061 166.881 149.738 166.573 150.483C166.265 151.228 166.107 152.026 166.108 152.832V170.295C166.108 171.921 166.754 173.481 167.904 174.632C169.054 175.782 170.614 176.428 172.241 176.428H195.541C201.262 176.428 204.317 185.583 204.317 185.583C204.317 185.583 206.273 176.377 212.972 176.377Z" fill="#FFF4DE"/>
    <path d="M180.748 163.697C182.012 163.697 183.036 162.673 183.036 161.409C183.036 160.145 182.012 159.12 180.748 159.12C179.484 159.12 178.459 160.145 178.459 161.409C178.459 162.673 179.484 163.697 180.748 163.697Z" fill="#F9C543"/>
    <path d="M192.109 163.846C193.373 163.846 194.398 162.821 194.398 161.557C194.398 160.293 193.373 159.269 192.109 159.269C190.845 159.269 189.82 160.293 189.82 161.557C189.82 162.821 190.845 163.846 192.109 163.846Z" fill="#F9C543"/>
    <path d="M203.47 163.846C204.734 163.846 205.759 162.821 205.759 161.557C205.759 160.293 204.734 159.269 203.47 159.269C202.206 159.269 201.182 160.293 201.182 161.557C201.182 162.821 202.206 163.846 203.47 163.846Z" fill="#F9C543"/>
    <path d="M290.86 197.913H197.835C196.808 197.912 195.795 198.159 194.884 198.634C193.973 199.109 193.19 199.798 192.602 200.641C192.015 201.484 191.64 202.457 191.511 203.477C191.381 204.496 191.5 205.532 191.857 206.496L215.312 270.235H324.246L299.99 204.264C299.3 202.399 298.055 200.79 296.422 199.655C294.79 198.519 292.848 197.911 290.86 197.913Z" fill="#F1B104"/>
    <path d="M289.029 201.146H198.321C197.322 201.146 196.337 201.388 195.45 201.85C194.564 202.313 193.803 202.983 193.231 203.803C192.659 204.623 192.294 205.57 192.166 206.561C192.038 207.553 192.152 208.561 192.498 209.499L215.381 271.654H321.586L297.936 207.36C297.265 205.537 296.051 203.965 294.459 202.854C292.866 201.743 290.971 201.146 289.029 201.146Z" fill="#F9C543"/>
    <path d="M215.1 270.218H393.541C394.739 270.218 395.925 270.454 397.031 270.912C398.137 271.371 399.143 272.042 399.989 272.889C400.836 273.736 401.508 274.742 401.966 275.848C402.424 276.955 402.66 278.141 402.66 279.338V279.584H224.219C221.801 279.584 219.481 278.623 217.771 276.913C216.061 275.203 215.1 272.883 215.1 270.464V270.218Z" fill="#F1B104"/>
    <path d="M262.232 243.85C265.564 240.149 264.563 233.815 259.996 229.702C255.43 225.589 249.027 225.256 245.695 228.957C242.363 232.658 243.364 238.992 247.931 243.104C252.498 247.217 258.901 247.551 262.232 243.85Z" fill="#FFD473"/>
    <path d="M347.278 273.571H339.675V276.3H347.278V273.571Z" fill="#3A193F"/>
    <path d="M361.803 273.571H354.2V276.3H361.803V273.571Z" fill="#F1B104"/>
    <path d="M543.607 253.957H540.667V248H513.831V275.11C513.83 275.779 513.961 276.441 514.217 277.059C514.473 277.678 514.848 278.239 515.321 278.712C515.794 279.185 516.355 279.56 516.973 279.816C517.591 280.072 518.254 280.203 518.922 280.202H535.575C536.926 280.202 538.221 279.666 539.176 278.711C540.13 277.756 540.667 276.46 540.667 275.11V265.869H543.607C545.187 265.869 546.702 265.242 547.818 264.125C548.935 263.008 549.563 261.493 549.563 259.913C549.563 258.333 548.935 256.818 547.818 255.701C546.702 254.584 545.187 253.957 543.607 253.957ZM545.701 262.133C545.41 262.425 545.064 262.655 544.683 262.813C544.302 262.97 543.894 263.05 543.481 263.048H540.667V256.755H543.481C544.102 256.754 544.71 256.937 545.226 257.281C545.743 257.626 546.146 258.116 546.383 258.689C546.621 259.263 546.683 259.894 546.562 260.503C546.44 261.112 546.141 261.672 545.701 262.11V262.133Z" fill="white" stroke="#F1B104" stroke-width="3" stroke-miterlimit="10"/>
    <path d="M529.294 245.46C527.881 244.012 520.479 239.166 522.132 232.191C523.785 225.217 534.265 226.727 533.945 218.934C533.671 212.326 527.881 214.975 526.611 217.384C526.611 217.384 527.378 208.664 535.341 211.576C548.785 216.491 533.179 230.458 528.716 234.32C524.62 237.873 529.294 245.46 529.294 245.46Z" fill="#FFF4DE"/>
    <path d="M538.693 226.767C538.693 226.767 536.977 232.655 529.992 235.55C529.992 235.55 540.713 235.55 538.693 226.767Z" fill="#FFF4DE"/>
    <path d="M616.02 280.202C616.02 280.202 636.134 169.985 535.392 154.6" stroke="#F1B104" stroke-width="3" stroke-miterlimit="10"/>
    <path d="M616.415 279.59H562.789C566.53 270.91 577.091 264.651 589.602 264.651C602.113 264.651 612.674 270.91 616.415 279.59Z" fill="#F9C543"/>
    <path d="M616.415 279.59H609.665C606.112 271.356 596.066 265.417 584.225 265.417C583.389 265.417 582.566 265.417 581.753 265.509C584.33 264.937 586.962 264.649 589.602 264.651C602.079 264.651 612.674 270.91 616.415 279.59Z" fill="#F1B104"/>
    <path d="M536.256 155.63C535.77 157.81 534.054 159.515 531.617 160.55C528.825 161.74 525.084 162.055 521.194 161.191C517.303 160.327 514.048 158.491 512.006 156.202C510.233 154.234 509.392 151.962 509.872 149.782C510.908 145.102 517.652 142.613 524.941 144.221C532.229 145.828 537.292 150.938 536.256 155.63Z" fill="#F9C543"/>
    <path d="M536.256 155.63C535.804 157.672 534.26 159.303 532.051 160.356C533.089 159.537 533.821 158.392 534.128 157.106C535.095 152.734 530.37 147.98 523.579 146.475C517.172 145.062 511.211 147.047 509.741 150.938C509.747 150.553 509.791 150.17 509.872 149.793C510.908 145.107 517.652 142.618 524.941 144.226C532.229 145.834 537.292 150.943 536.256 155.63Z" fill="#F9C543"/>
    <path d="M530.142 159.458C527.353 160.444 524.343 160.629 521.455 159.989C518.566 159.35 515.915 157.913 513.803 155.841C512.859 153.782 518.431 153.061 522.773 154.022C527.115 154.983 531.938 158.37 530.142 159.458Z" fill="#F1B104"/>
    <path d="M137.664 109.015H328.354V126.478L137.624 110.36C137.121 110.308 137.155 109.015 137.664 109.015Z" fill="#FFF4DE"/>
    <path d="M307.793 22.6462H299.773C298.146 22.6462 296.827 23.9655 296.827 25.5929V91.3064C296.827 92.9338 298.146 94.2531 299.773 94.2531H307.793C309.42 94.2531 310.739 92.9338 310.739 91.3064V25.5929C310.739 23.9655 309.42 22.6462 307.793 22.6462Z" fill="white" stroke="#F1B104" stroke-width="3" stroke-miterlimit="10"/>
    <path d="M293.091 28.7056H283.514C281.925 28.7056 280.637 29.9941 280.637 31.5836V92.7941C280.637 94.3836 281.925 95.6721 283.514 95.6721H293.091C294.68 95.6721 295.968 94.3836 295.968 92.7941V31.5836C295.968 29.9941 294.68 28.7056 293.091 28.7056Z" fill="#F1B104"/>
    <path d="M277.954 12.4446H275.368C273.886 12.4446 272.685 13.646 272.685 15.128V92.9887C272.685 94.4707 273.886 95.6721 275.368 95.6721H277.954C279.436 95.6721 280.637 94.4707 280.637 92.9887V15.128C280.637 13.646 279.436 12.4446 277.954 12.4446Z" fill="#D6EAF2"/>
    <path d="M269.173 33.5576H262.285C260.661 33.5576 259.344 34.8743 259.344 36.4986V91.8844C259.344 93.5087 260.661 94.8254 262.285 94.8254H269.173C270.797 94.8254 272.113 93.5087 272.113 91.8844V36.4986C272.113 34.8743 270.797 33.5576 269.173 33.5576Z" fill="white" stroke="#F1B104" stroke-width="3" stroke-miterlimit="10"/>
    <path d="M235.598 95.6722H224.454L252.331 20.9642C252.439 20.6747 252.632 20.4249 252.886 20.2481C253.139 20.0712 253.441 19.9758 253.75 19.9744H261.656C261.903 19.9777 262.145 20.0406 262.363 20.1576C262.581 20.2747 262.767 20.4424 262.906 20.6467C263.046 20.851 263.133 21.0859 263.163 21.3314C263.192 21.5769 263.162 21.8258 263.074 22.0571L235.598 95.6722Z" fill="#F1B104"/>
    <path d="M327.81 95.6721H138.082V108.191H327.81V95.6721Z" fill="white" stroke="#F1B104" stroke-width="3" stroke-miterlimit="10"/>
    <path d="M157.258 67.9163H205.129V73.1745C205.129 79.1428 202.759 84.8666 198.539 89.0868C194.32 93.307 188.597 95.6779 182.629 95.6779H179.735C173.767 95.6779 168.045 93.307 163.825 89.0868C159.606 84.8666 157.235 79.1428 157.235 73.1745V67.9163H157.258Z" fill="#F1B104"/>
    <path d="M200.341 67.9162H164.872C164.872 67.9162 154.495 76.3786 148.574 69.4382C144.283 64.4145 164.809 64.1914 164.809 64.1914L165.427 63.9739C165.427 63.9739 156.623 45.4815 164.947 42.3975C170.667 40.2633 172.086 55.9293 172.384 61.0158C175.41 59.7513 181.314 57.9261 181.823 62.7323C181.823 62.7323 182.481 42.941 190.77 44.8292C197.663 46.4027 187.441 65.0039 187.441 65.0039L188.156 65.4387C188.156 65.4387 207.097 51.6037 211.742 54.8193C215.255 57.251 200.341 67.9162 200.341 67.9162Z" fill="#A1CBE2"/>
    <path d="M170.301 67.9161C170.301 67.9161 170.667 50.854 177.092 51.3232C183.516 51.7924 174.563 67.9161 174.563 67.9161H170.301Z" fill="#D6EAF2"/>
    <path d="M170.302 67.9162C170.302 67.9162 163.86 51.8154 155.131 55.9408C146.601 59.9459 164.947 67.9162 164.947 67.9162H170.302Z" fill="#D6EAF2"/>
    <path d="M183.539 67.9162C183.539 67.9162 189.323 53.4118 198.493 54.7907C207.663 56.1696 187.172 67.9162 187.172 67.9162H183.539Z" fill="#D6EAF2"/>
    <path d="M192.972 67.9162C192.972 67.9162 210.913 58.8817 214.139 64.3287C217.366 69.7757 192.972 67.9162 192.972 67.9162Z" fill="#D6EAF2"/>
    <path d="M405.051 144.707C405.051 144.707 409.777 145.245 413.564 139.597" stroke="#3A1A3F" stroke-width="3" stroke-linecap="round" stroke-linejoin="round"/>
    <path d="M423.855 128.503C423.855 128.503 423.855 123.285 428.433 123.354" stroke="#E2564B" stroke-width="3" stroke-linecap="round" stroke-linejoin="round"/>
    <path d="M424.914 125.683L427.963 127.107" stroke="#E2564B" stroke-width="3" stroke-linecap="round" stroke-linejoin="round"/>
    <path d="M432.014 133.899C433.293 133.899 434.331 132.861 434.331 131.581C434.331 130.302 433.293 129.264 432.014 129.264C430.734 129.264 429.696 130.302 429.696 131.581C429.696 132.861 430.734 133.899 432.014 133.899Z" fill="#FFCDC5"/>
    <path d="M401.934 129.264V138.207L404.32 139.174" stroke="#E2564B" stroke-width="3" stroke-linecap="round" stroke-linejoin="round"/>
    <path d="M405.961 121.551C405.961 121.551 408.575 119.526 413.089 121.551" stroke="#3A1A3F" stroke-width="3" stroke-linecap="round" stroke-linejoin="round"/>
    <path d="M410.332 129.975C411.188 129.825 411.724 128.805 411.53 127.697C411.336 126.589 410.485 125.812 409.629 125.962C408.773 126.112 408.236 127.132 408.431 128.24C408.625 129.348 409.476 130.125 410.332 129.975Z" fill="#242854"/>
    <path d="M395.986 133.621C396.832 133.422 397.309 132.373 397.052 131.278C396.794 130.183 395.899 129.456 395.053 129.655C394.208 129.854 393.731 130.904 393.988 131.999C394.246 133.094 395.14 133.82 395.986 133.621Z" fill="#242854"/>
    <path d="M323.92 478.195C323.92 478.195 297.57 390.081 295.419 365.398C292.719 334.369 392.815 313.548 392.815 313.548" stroke="#639AD6" stroke-width="3" stroke-miterlimit="10"/>
</svg>
