<svg width="100" height="100" viewBox="0 0 100 100" fill="none" xmlns="http://www.w3.org/2000/svg">
    <path d="M70.1773 48.4284C69.627 47.4831 68.8704 46.7448 67.9017 46.2107C66.9329 45.6794 65.8352 45.4109 64.6085 45.4109C63.3818 45.4109 62.2784 45.6766 61.3039 46.2107C60.3294 46.7448 59.567 47.4831 59.0167 48.4284C58.4693 49.3736 58.1942 50.4475 58.1942 51.6472C58.1942 52.8469 58.4693 53.9208 59.0167 54.866C59.567 55.8112 60.3294 56.5495 61.3039 57.0837C62.2784 57.6178 63.3789 57.8835 64.6085 57.8835C65.8352 57.8835 66.9329 57.6178 67.9017 57.0837C68.8704 56.5523 69.627 55.8112 70.1773 54.866C70.7248 53.9208 70.9999 52.8469 70.9999 51.6472C70.9999 50.4447 70.7248 49.3736 70.1773 48.4284ZM66.7437 54.0886C66.1877 54.6954 65.4769 55.0002 64.6085 55.0002C63.7429 55.0002 63.0264 54.6954 62.4647 54.0886C61.9029 53.4817 61.6191 52.6679 61.6191 51.6472C61.6191 50.6264 61.9 49.8127 62.4647 49.2058C63.0293 48.599 63.7429 48.2941 64.6085 48.2941C65.4741 48.2941 66.1877 48.599 66.7437 49.2058C67.2998 49.8127 67.5778 50.6264 67.5778 51.6472C67.5778 52.6679 67.2969 53.4817 66.7437 54.0886Z" fill="#F53F02"/>
    <path d="M65.5171 40.7966H69.157L65.2362 44.0378H62.5936L65.5171 40.7966Z" fill="#F53F02"/>
    <path d="M39.7364 35.6537V38.3551H29.3353V36.2382L35.271 28.7015H29.4872V26H39.5387V28.117L33.603 35.6537H39.7364Z" fill="#F53F02"/>
    <path d="M38.6187 46.6498C39.5845 47.5418 40.0689 48.8898 40.0689 50.6908V57.601H36.9076V56.0937C36.2713 57.2179 35.0876 57.7828 33.3536 57.7828C32.4565 57.7828 31.6827 57.6262 31.0235 57.3102C30.3671 56.9942 29.8656 56.5607 29.5159 56.0042C29.172 55.4477 29 54.8157 29 54.1109C29 52.9867 29.407 52.1002 30.2238 51.4542C31.0407 50.8082 32.2989 50.4866 34.0042 50.4866H36.6898C36.6898 49.7204 36.4662 49.1331 36.0191 48.7192C35.572 48.3053 34.8984 48.1012 34.0042 48.1012C33.3851 48.1012 32.7747 48.2018 32.1728 48.406C31.5738 48.6073 31.0636 48.8814 30.6451 49.2282L29.4299 46.7756C30.0662 46.3114 30.8286 45.9506 31.7171 45.6961C32.6056 45.4416 33.5198 45.313 34.4571 45.313C36.2656 45.3102 37.6528 45.7549 38.6187 46.6498ZM35.7382 55.0002C36.1853 54.7234 36.5035 54.3151 36.6926 53.7726V52.5337H34.3739C32.9868 52.5337 32.2932 53.0063 32.2932 53.9515C32.2932 54.4018 32.4623 54.7597 32.8033 55.0198C33.1415 55.2827 33.6087 55.4141 34.202 55.4141C34.7781 55.4169 35.2911 55.2771 35.7382 55.0002Z" fill="#F53F02"/>
    <path d="M53.2071 46.0848C54.0956 46.6022 54.7921 47.3293 55.2994 48.2689C55.8038 49.2058 56.056 50.2992 56.056 51.5437C56.056 52.7881 55.8038 53.8816 55.2994 54.8184C54.795 55.7553 54.0956 56.4852 53.2071 57.0025C52.3186 57.5199 51.3327 57.78 50.2493 57.78C48.6443 57.78 47.4233 57.2542 46.5864 56.2055V57.601H43.3592V40.8972H46.7383V46.7728C47.5896 45.7968 48.7618 45.3102 50.2493 45.3102C51.3327 45.3102 52.3186 45.5674 53.2071 46.0848ZM51.7999 53.9879C52.3559 53.381 52.6339 52.5672 52.6339 51.5465C52.6339 50.5257 52.3559 49.7119 51.7999 49.1051C51.2439 48.4982 50.5331 48.1934 49.6646 48.1934C48.7991 48.1934 48.0854 48.4982 47.5322 49.1051C46.9762 49.7119 46.6982 50.5257 46.6982 51.5465C46.6982 52.5672 46.9762 53.381 47.5322 53.9879C48.0883 54.5947 48.7991 54.8995 49.6646 54.8995C50.5302 54.8995 51.2439 54.5947 51.7999 53.9879Z" fill="#F53F02"/>
    <path d="M69.3462 63.3982C70.2261 64.2987 70.6675 65.6354 70.6675 67.4057V73.9999H67.3142V67.9454C67.3142 66.9862 67.1135 66.2675 66.7123 65.7948C66.311 65.3222 65.7005 65.0845 64.941 65.0845C64.0955 65.0845 63.422 65.3586 62.9204 65.9067C62.4189 66.4548 62.1666 67.2686 62.1666 68.3481V73.9971H58.8792V62.2265H61.9603V63.6443C62.4045 63.1353 63.015 62.741 63.6742 62.4614C64.3334 62.1845 65.0585 62.0447 65.8467 62.0447C67.2769 62.0475 68.4663 62.4977 69.3462 63.3982Z" fill="#F53F02"/>
</svg>
