<svg width="14" height="15" viewBox="0 0 14 15" fill="none" xmlns="http://www.w3.org/2000/svg">
<path d="M7.40874 11.0795H7.38786C8.11139 10.2807 8.81678 9.27151 9.24408 8.363L9.24409 8.36299C9.53684 7.74038 9.77157 7.01954 9.77157 6.30561C9.77157 4.67578 8.54342 3.31797 7.00009 3.31797C5.45259 3.31797 4.22861 4.67588 4.22861 6.30561C4.22861 7.02366 4.46338 7.74044 4.7561 8.36299L4.7561 8.363C5.21414 9.33685 5.9916 10.4222 6.76818 11.248L6.76814 11.2481L6.77032 11.2502C6.83219 11.3121 6.91003 11.3489 7.00417 11.3489C7.09832 11.3489 7.17615 11.3121 7.23803 11.2502L7.40874 11.0795ZM8.68366 8.07422L8.68362 8.07432C8.31122 8.87458 7.7265 9.72099 7.11755 10.427H7.10992L7.0799 10.466C7.06571 10.4844 7.04599 10.5034 7.02587 10.5169C7.016 10.5235 7.00742 10.5279 7.0007 10.5305C6.997 10.5319 6.99448 10.5325 6.99309 10.5328C6.99209 10.5325 6.99049 10.532 6.98827 10.531C6.98174 10.5283 6.97287 10.5235 6.96204 10.516C6.94048 10.5011 6.91783 10.4804 6.89917 10.4602C6.27614 9.748 5.68266 8.88741 5.30013 8.07405C5.0458 7.52902 4.83647 6.90427 4.83647 6.30154C4.83647 5.01499 5.80278 3.96254 6.99194 3.96254C8.1811 3.96254 9.1474 5.01499 9.1474 6.30154C9.1474 6.90433 8.93803 7.52915 8.68366 8.07422Z" fill="#D7DEE9" stroke="#D7DEE9" stroke-width="0.2"/>
<rect x="0.555" y="0.888252" width="12.89" height="12.89" rx="2.445" stroke="#D7DEE9" stroke-width="1.11"/>
</svg>
