<svg width="14" height="14" viewBox="0 0 14 14" fill="none" xmlns="http://www.w3.org/2000/svg">
<path d="M6.28059 13.7613C6.52754 13.7613 6.73216 13.5705 6.75427 13.329L6.76154 13.3218V13.2803C6.76154 13.0188 6.54745 12.8047 6.28588 12.8047H2.64567C2.24492 12.8047 1.88375 12.6416 1.62114 12.3789C1.35852 12.1163 1.1954 11.7552 1.1954 11.3544V2.64013C1.1954 2.23939 1.35852 1.87822 1.62114 1.6156C1.88375 1.35299 2.24492 1.18987 2.64567 1.18987H11.36C11.7607 1.18987 12.1219 1.35299 12.3845 1.6156C12.6471 1.87822 12.8102 2.23939 12.8102 2.64013V5.96817C12.8102 6.22975 13.0243 6.44383 13.2859 6.44383C13.5475 6.44383 13.7615 6.22975 13.7615 5.96817V2.64013C13.7615 1.97744 13.4908 1.37563 13.055 0.93979C12.6192 0.503946 12.0173 0.233252 11.3547 0.233252H2.64037C1.97769 0.233252 1.37588 0.503945 0.940034 0.93979C0.50419 1.37563 0.233496 1.97744 0.233496 2.64013V11.3544C0.233496 12.0171 0.50419 12.6189 0.940034 13.0548C1.37588 13.4906 1.97769 13.7613 2.64037 13.7613H6.28059ZM2.70005 1.96739L2.70005 1.96737L2.69812 1.96685C2.52808 1.92107 2.35834 1.96064 2.23104 2.08794C2.10375 2.21523 2.06391 2.3906 2.11022 2.55598L2.11021 2.55598L2.11049 2.55695L2.8827 5.21207C2.88275 5.21224 2.8828 5.21241 2.88285 5.21258C2.92991 5.37998 3.05861 5.50155 3.2255 5.5416C3.38816 5.58064 3.55781 5.54212 3.68024 5.41364L4.28588 4.80801L6.23104 6.75317C6.41824 6.94037 6.71965 6.94037 6.90685 6.75317C7.09405 6.56597 7.09405 6.26456 6.90685 6.07736L4.96169 4.13219L5.56823 3.52566C5.68832 3.40557 5.73507 3.23758 5.69528 3.07182C5.6546 2.90229 5.53151 2.78199 5.36926 2.73007L5.31119 2.71149L5.29933 2.72335L2.70005 1.96739ZM11.1324 6.47135H9.10598C8.37954 6.47135 7.72489 6.76869 7.24691 7.24667C6.76894 7.72464 6.47159 8.37929 6.47159 9.10574V11.1322C6.47159 11.8586 6.76894 12.5133 7.24691 12.9913C7.72489 13.4692 8.37954 13.7666 9.10598 13.7666H11.1324C11.8589 13.7666 12.5135 13.4692 12.9915 12.9913C13.4695 12.5133 13.7668 11.8586 13.7668 11.1322V9.10574C13.7668 8.37929 13.4695 7.72464 12.9915 7.24667C12.5135 6.76869 11.8589 6.47135 11.1324 6.47135ZM9.10598 7.42796H11.1324C11.5912 7.42796 12.0106 7.61738 12.3157 7.92248C12.6208 8.22758 12.8102 8.64701 12.8102 9.10574V11.1322C12.8102 11.5909 12.6208 12.0103 12.3157 12.3155C12.0106 12.6206 11.5912 12.81 11.1324 12.81H9.10598C8.64725 12.81 8.22783 12.6206 7.92273 12.3155C7.61762 12.0103 7.42821 11.5909 7.42821 11.1322V9.10574C7.42821 8.64701 7.61762 8.22758 7.92273 7.92248C8.22783 7.61738 8.64725 7.42796 9.10598 7.42796Z" fill="#D7DEE9" stroke="#D7DEE9" stroke-width="0.2"/>
</svg>
