<svg width="13" height="12" viewBox="0 0 13 12" fill="none" xmlns="http://www.w3.org/2000/svg">
<path fill-rule="evenodd" clip-rule="evenodd" d="M13 5.99997C13 6.19888 12.921 6.38965 12.7803 6.5303C12.6397 6.67095 12.4489 6.74997 12.25 6.74997H3.5605L6.781 9.96897C6.85073 10.0387 6.90604 10.1215 6.94378 10.2126C6.98152 10.3037 7.00094 10.4014 7.00094 10.5C7.00094 10.5986 6.98152 10.6962 6.94378 10.7873C6.90604 10.8785 6.85073 10.9612 6.781 11.031C6.71127 11.1007 6.62848 11.156 6.53737 11.1938C6.44626 11.2315 6.34861 11.2509 6.25 11.2509C6.15138 11.2509 6.05373 11.2315 5.96262 11.1938C5.87151 11.156 5.78873 11.1007 5.719 11.031L1.219 6.53097C1.14915 6.4613 1.09374 6.37854 1.05593 6.28742C1.01812 6.1963 0.998657 6.09862 0.998657 5.99997C0.998657 5.90132 1.01812 5.80364 1.05593 5.71252C1.09374 5.6214 1.14915 5.53864 1.219 5.46897L5.719 0.968971C5.85983 0.828141 6.05083 0.749023 6.25 0.749023C6.44916 0.749023 6.64017 0.828141 6.781 0.968971C6.92183 1.1098 7.00094 1.30081 7.00094 1.49997C7.00094 1.69913 6.92183 1.89014 6.781 2.03097L3.5605 5.24997H12.25C12.4489 5.24997 12.6397 5.32899 12.7803 5.46964C12.921 5.61029 13 5.80106 13 5.99997Z" fill="#2E2D2D"/>
</svg>
