<svg width="14" height="14" viewBox="0 0 14 14" fill="none" xmlns="http://www.w3.org/2000/svg">
<path d="M2.64418 0.233008H2.54418V0.240195C1.92174 0.266084 1.35745 0.532409 0.942605 0.947093C0.505653 1.38388 0.233344 1.98641 0.233344 2.64807V11.3564C0.233344 12.018 0.505653 12.6206 0.942605 13.0574C1.37956 13.4942 1.98231 13.7663 2.64418 13.7663H11.3558C12.0177 13.7663 12.6205 13.4942 13.0574 13.0574C13.4944 12.6206 13.7667 12.018 13.7667 11.3564V9.86412V4.28344V2.64296C13.7667 1.9813 13.4944 1.37877 13.0574 0.941982C12.6205 0.505198 12.0177 0.233008 11.3558 0.233008H2.64418ZM1.62081 12.364L1.62016 12.3633C1.3576 12.1057 1.1951 11.7428 1.1951 11.3462V2.63785C1.1951 2.24177 1.35725 1.88349 1.62081 1.62003C1.88411 1.35684 2.24756 1.19447 2.64418 1.19447H11.3558C11.7574 1.19447 12.1158 1.35671 12.3792 1.62003C12.6425 1.88323 12.8049 2.24653 12.8049 2.64296V4.18344H8.36044L8.35021 4.17322H8.3088C7.97496 4.17322 7.66851 4.30682 7.44567 4.52956L7.44478 4.53046C7.22867 4.75204 7.08917 5.05764 7.08917 5.39242V8.72958C7.08917 9.06334 7.22284 9.36969 7.44567 9.59244L7.44657 9.59333C7.66823 9.80936 7.97394 9.94879 8.3088 9.94879H12.7947V11.3411C12.7947 11.7424 12.6324 12.1007 12.369 12.364L12.3683 12.3646C12.1106 12.6271 11.7475 12.7895 11.3507 12.7895H2.63907C2.2428 12.7895 1.88437 12.6274 1.62081 12.364ZM8.13921 5.22295L8.13927 5.223L8.14199 5.22007C8.18399 5.17458 8.24917 5.1449 8.31903 5.1449H12.8049V8.99754H8.31903C8.2514 8.99754 8.18915 8.96941 8.13921 8.9195L8.13927 8.91944L8.13633 8.91673C8.09083 8.87474 8.06116 8.8096 8.06116 8.73981V5.40264C8.06116 5.33507 8.08928 5.27286 8.13921 5.22295ZM10.4998 7.06867C10.4998 6.60501 10.1231 6.22253 9.65338 6.22253C9.18964 6.22253 8.80696 6.59901 8.80696 7.06867C8.80696 7.53233 9.18364 7.9148 9.65338 7.9148C10.1171 7.9148 10.4998 7.53833 10.4998 7.06867Z" fill="#D7DEE9" stroke="#D7DEE9" stroke-width="0.2"/>
</svg>
