<?xml version="1.0" encoding="UTF-8"?>
<!DOCTYPE svg PUBLIC "-//W3C//DTD SVG 1.1//EN" "http://www.w3.org/Graphics/SVG/1.1/DTD/svg11.dtd">
<!-- Creator: CorelDRAW 2020 (64-Bit) -->
<svg xmlns="http://www.w3.org/2000/svg" xml:space="preserve" width="14.3104mm" height="14.3104mm" version="1.1" style="shape-rendering:geometricPrecision; text-rendering:geometricPrecision; image-rendering:optimizeQuality; fill-rule:evenodd; clip-rule:evenodd"
viewBox="0 0 84.72 84.72"
 xmlns:xlink="http://www.w3.org/1999/xlink"
 xmlns:xodm="http://www.corel.com/coreldraw/odm/2003">
 <defs>
  <style type="text/css">
   <![CDATA[
    .fil0 {fill:#D7DEE8}
   ]]>
  </style>
 </defs>
 <g id="Слой_x0020_1">
  <metadata id="CorelCorpID_0Corel-Layer"/>
  <path class="fil0" d="M16.87 6.61c0.35,0.67 0.68,1.33 1.03,2l1.08 2.02c0.84,1.69 1.8,3.31 2.64,5l3.19 6.04c0.19,0.37 0.34,0.71 0.53,1.06 -0.54,0.8 -3.83,3.61 -4.78,4.93 -1.13,1.57 -1.97,3.88 -1.39,5.92 0.75,2.64 1.44,4.19 2.66,6.64 1.12,2.26 3.06,4.88 4.63,6.8 0.64,0.78 1.76,2.11 2.45,2.79l2.07 2.07c0.19,0.19 0.33,0.33 0.52,0.52l0.59 0.52c0.73,0.67 1.38,1.37 2.1,2.03l1.07 1c1.04,1.04 2.2,1.99 3.27,3l1.13 0.93c1.18,0.95 2.35,1.82 3.66,2.61 3.06,1.84 7.95,4 11.52,2.89 1.32,-0.41 2.27,-1.09 3.21,-2.02l2.58 -2.65c0.45,-0.45 0.86,-0.86 1.31,-1.31 0.96,-0.96 0.72,-0.75 1.93,-0.11l1.25 0.75c2.22,1.31 4.4,2.57 6.59,3.88l5.76 3.4c0.21,0.13 0.64,0.4 0.85,0.46 -0.13,0.48 -0.94,0.97 -1.29,1.33 -0.45,0.45 -0.86,0.86 -1.31,1.31l-7.92 7.85c-1.2,1.2 -2.57,0.88 -4.15,0.81 -2.61,-0.11 -6.18,-1.06 -8.53,-1.94 -1.25,-0.47 -2.57,-0.95 -3.78,-1.53l-2.66 -1.26c-2.84,-1.42 -6.45,-3.53 -8.97,-5.43l-8.75 -7.09c-0.47,-0.36 -0.9,-0.89 -1.37,-1.25l-2.02 -1.91c-0.26,-0.26 -0.46,-0.39 -0.72,-0.65 -0.45,-0.46 -0.86,-0.86 -1.31,-1.31l-4.07 -4.41c-0.12,-0.14 -0.22,-0.21 -0.33,-0.35l-1.79 -2.14c-0.8,-0.99 -1.55,-1.96 -2.32,-2.98 -1.87,-2.48 -5.37,-7.77 -6.53,-10.48 -0.4,-0.93 -0.88,-1.78 -1.27,-2.73l-1.55 -3.69c-0.72,-1.89 -1.45,-4 -1.8,-6.05 -0.29,-1.71 -0.62,-4.17 -0.08,-5.9 0.15,-0.47 0.2,-0.53 0.53,-0.85 0.46,-0.45 10.06,-10.19 10.56,-10.52zm-16.87 13.16c0,3.7 0.49,6.24 1.61,9.69 0.5,1.53 1.07,2.93 1.66,4.4 0.39,0.98 0.8,1.86 1.21,2.78l0.64 1.36c0.24,0.48 0.44,0.94 0.67,1.4 0.22,0.44 0.45,0.88 0.69,1.31l1.46 2.53c0.87,1.45 1.74,2.92 2.75,4.27l2.11 2.92c0.15,0.2 0.27,0.36 0.41,0.55 1.14,1.53 2.39,3 3.61,4.45l0.93 1.07c2.35,2.67 4.94,5.18 7.51,7.65 0.2,0.19 0.32,0.24 0.52,0.45l2.1 1.9c0.95,0.92 2.86,2.44 3.85,3.24 2.22,1.8 4.49,3.59 6.87,5.19 0.42,0.28 0.81,0.5 1.23,0.77 0.23,0.15 0.41,0.24 0.65,0.39l3.17 1.85c0.45,0.24 0.82,0.48 1.29,0.71 0.94,0.47 1.73,0.96 2.7,1.36l1.36 0.64c4.4,2.12 15.21,5.67 20.27,3.31 1.92,-0.89 3.38,-2.68 4.86,-4.16l9.06 -8.99c1.04,-1.04 1.53,-1.83 1.53,-3.43 0,-0.64 -0.26,-1.3 -0.48,-1.72 -0.76,-1.46 -2.38,-2.15 -3.72,-2.96l-3.5 -2.07c-0.22,-0.13 -0.47,-0.27 -0.7,-0.41l-9.88 -5.83c-1.21,-0.73 -2.04,-1.27 -3.69,-1.27 -1.22,0 -2.4,0.54 -3.19,1.01 -0.56,0.33 -0.73,0.53 -1.17,0.97l-4.2 4.27c-0.56,0.56 -0.78,0.77 -1.64,0.77 -0.47,0 -1.07,-0.17 -1.46,-0.26 -1.76,-0.41 -3.36,-1.19 -4.86,-2.09 -0.4,-0.24 -0.7,-0.44 -1.09,-0.7 -1.06,-0.7 -1.96,-1.51 -2.95,-2.28 -0.21,-0.17 -0.25,-0.23 -0.44,-0.39l-2.72 -2.52c-0.19,-0.19 -0.3,-0.23 -0.48,-0.41 -0.44,-0.43 -0.84,-0.91 -1.31,-1.31 -0.89,-0.74 -3.32,-3.05 -3.99,-3.86 -0.28,-0.34 -0.61,-0.57 -0.88,-0.92 -0.14,-0.18 -0.23,-0.26 -0.4,-0.43 -1.02,-1.03 -1.89,-2.28 -2.76,-3.44 -1.01,-1.33 -1.95,-2.83 -2.7,-4.33 -0.63,-1.27 -1.93,-3.93 -1.93,-5.17 0,-0.93 1.08,-1.74 1.6,-2.26 0.96,-0.96 3.19,-3.01 3.85,-4 0.51,-0.75 0.95,-1.74 0.95,-2.98 0,-1.91 -1.14,-3.37 -1.91,-4.91l-3.93 -7.44c-0.27,-0.54 -0.52,-0.97 -0.78,-1.49l-2.37 -4.45c-0.14,-0.27 -0.23,-0.47 -0.37,-0.74 -0.94,-1.84 -2.04,-3.76 -4.5,-3.76 -1.23,0 -2.45,0.89 -3.08,1.53l-11.54 11.54c-1.79,1.79 -2.53,3.95 -2.53,6.7z"/>
 </g>
</svg>
