<svg width="14" height="13" viewBox="0 0 14 13" fill="none" xmlns="http://www.w3.org/2000/svg">
<path d="M0.956397 5.41197L0.956397 5.41167C0.956371 5.37707 0.96477 5.34173 0.982465 5.30802C1.00024 5.27416 1.02751 5.24186 1.06436 5.21518C1.06437 5.21517 1.06438 5.21516 1.06439 5.21516L6.73102 1.11331L6.73105 1.11329C6.78527 1.07404 6.85574 1.05039 6.9314 1.05039C7.00705 1.05039 7.07753 1.07404 7.13174 1.11329L7.13177 1.11331L12.7984 5.21515C12.7984 5.21516 12.7984 5.21517 12.7984 5.21518C12.8353 5.24186 12.8626 5.27417 12.8803 5.30802L13.2345 5.12209L12.8803 5.30802C12.898 5.34173 12.9064 5.37707 12.9064 5.41167V5.41197V12.3407C12.9064 12.3998 12.8814 12.4629 12.8264 12.5141C12.7704 12.5662 12.6887 12.6 12.5981 12.6H1.26473C1.17406 12.6 1.09236 12.5662 1.03638 12.5141C0.981365 12.4629 0.956397 12.3998 0.956397 12.3407L0.956397 5.41197Z" stroke="#D7DEE9" stroke-width="0.8"/>
</svg>
