<svg width="24" height="24" viewBox="0 0 24 24" fill="none" xmlns="http://www.w3.org/2000/svg">
<path fill-rule="evenodd" clip-rule="evenodd" d="M2.01682 20.0262H3.03364V6.9271C3.03364 6.38878 3.21308 5.85047 3.45234 5.43178C3.7514 5.01308 4.17009 4.65421 4.6486 4.47477L10.271 2.20187C10.6897 2.02243 11.1084 1.96262 11.5271 2.02243C11.9458 2.08224 12.3645 2.20187 12.7234 2.44112C13.0822 2.68037 13.3813 3.03925 13.5607 3.39813C13.7402 3.75701 13.8598 4.1757 13.8598 4.65421V7.76449C13.9794 7.76449 14.0393 7.70467 14.1589 7.70467C14.5776 7.64486 14.9963 7.70467 15.415 7.8243L19.6019 9.25981C20.1402 9.43925 20.5589 9.79813 20.8579 10.2168C21.157 10.6355 21.3365 11.1738 21.3365 11.7121V19.9664H22.2935C22.8318 19.9664 23.3103 20.4449 23.3103 20.9832C23.3103 21.5215 22.8318 22 22.2935 22H2.01682C1.4785 22 1 21.5215 1 20.9832C1 20.4449 1.4785 19.9664 2.01682 19.9664V20.0262ZM5.06729 20.0262H11.886V4.71402C11.886 4.59439 11.886 4.47477 11.8262 4.41495C11.7664 4.35514 11.7065 4.23551 11.6467 4.1757C11.5271 4.11589 11.4673 4.05607 11.3477 4.05607C11.228 4.05607 11.1682 4.05607 11.0486 4.11589L5.42617 6.38878C5.30654 6.4486 5.18692 6.50841 5.1271 6.62804C5.06729 6.74766 5.00748 6.86729 5.00748 6.98692V20.086L5.06729 20.0262ZM13.9196 20.0262H19.3028V11.772C19.3028 11.6523 19.243 11.4729 19.1832 11.4131C19.1234 11.3533 19.0636 11.2935 18.9439 11.2336L14.757 9.79813C14.6374 9.73832 14.5178 9.73832 14.3981 9.73832C14.3383 9.73832 14.2187 9.79813 14.1589 9.85794C14.0991 9.91776 13.9794 9.97757 13.9794 10.0972C13.9196 10.157 13.9196 10.2766 13.9196 10.3963V20.086V20.0262Z" fill="#143360"/>
</svg>
