<svg width="13" height="14" viewBox="0 0 13 14" fill="none" xmlns="http://www.w3.org/2000/svg">
<path d="M10.1833 6.75H11.3541L10.5444 5.90424L8.65887 3.93457L8.65886 3.93456C8.56356 3.83502 8.56356 3.66498 8.65886 3.56544C8.74239 3.47819 8.86834 3.47819 8.95187 3.56544L12.0632 6.81543L12.0632 6.81544C12.1585 6.91498 12.1585 7.08502 12.0632 7.18456L12.4244 7.53033L12.0632 7.18456L8.95186 10.4345L9.31304 10.7803L8.95186 10.4345C8.86833 10.5218 8.74239 10.5218 8.65886 10.4345C8.56356 10.335 8.56356 10.165 8.65886 10.0655L8.65887 10.0655L10.5444 8.09576L11.3541 7.25H10.1833H4.73671C4.63664 7.25 4.51871 7.15884 4.51871 7C4.51871 6.84116 4.63664 6.75 4.73671 6.75H10.1833ZM0.689362 1.75C0.689362 1.03887 1.2359 0.5 1.86469 0.5H4.25803C4.3581 0.5 4.47603 0.591162 4.47603 0.75C4.47603 0.908838 4.3581 1 4.25803 1H1.86469C1.43605 1 1.12536 1.35656 1.12536 1.75V12.25C1.12536 12.6435 1.43609 13 1.86469 13H4.25803C4.3581 13 4.47603 13.0912 4.47603 13.25C4.47603 13.4088 4.3581 13.5 4.25803 13.5H1.86469C1.2359 13.5 0.689362 12.9611 0.689362 12.25V1.75Z" stroke="#D7DEE9"/>
</svg>
