<svg width="35" height="35" viewBox="0 0 35 35" fill="none" xmlns="http://www.w3.org/2000/svg">
<path d="M17.3259 1.86303C8.7972 1.86303 1.86032 8.79992 1.86032 17.3286C1.86032 25.8547 8.7972 32.7943 17.3259 32.7943C25.852 32.7943 32.7888 25.8574 32.7888 17.3286C32.7888 8.80263 25.852 1.86303 17.3259 1.86303ZM17.3259 34.6519C7.77213 34.6519 0 26.8797 0 17.3259C0 7.77213 7.77213 0 17.3259 0C26.8797 0 34.6519 7.77213 34.6519 17.3259C34.6519 26.8797 26.8797 34.6519 17.3259 34.6519Z" fill="#333333"/>
<path fill-rule="evenodd" clip-rule="evenodd" d="M14.6086 17.4098V27.4517C14.6086 27.5955 14.7252 27.7121 14.8717 27.7121H18.6005C18.7442 27.7121 18.8608 27.5955 18.8608 27.4517V17.2471H21.5645C21.7001 17.2471 21.814 17.144 21.8248 17.0085L22.0852 13.9332C22.0987 13.7814 21.9767 13.6485 21.8248 13.6485H18.8608V11.4682C18.8608 10.9556 19.2757 10.5407 19.7855 10.5407H21.8682C22.0119 10.5407 22.1286 10.4241 22.1286 10.2804V7.20516C22.1286 7.06143 22.0119 6.94482 21.8682 6.94482H18.3483C16.2818 6.94482 14.6086 8.62074 14.6086 10.6844V13.6485H12.7429C12.5992 13.6485 12.4825 13.7651 12.4825 13.9088V16.984C12.4825 17.1278 12.5992 17.2444 12.7429 17.2444H14.6086V17.4071V17.4098Z" fill="#333333"/>
</svg>
