<svg width="22" height="20" viewBox="0 0 22 20" fill="none" xmlns="http://www.w3.org/2000/svg">
<path d="M21.8333 6.9814C21.8333 7.66712 21.7265 8.34656 21.5192 8.99453C20.445 13.5367 12.6176 18.5695 11.7256 19.1294C11.5057 19.2678 11.2544 19.337 11.0031 19.337C10.7519 19.337 10.5006 19.2678 10.2807 19.1294C9.38866 18.5695 1.55499 13.5304 0.480768 8.98824C0.273461 8.33397 0.166667 7.65454 0.166667 6.97511C0.166667 4.5279 1.49845 2.27571 3.63434 1.08671C4.6269 0.539387 5.75138 0.25 6.87586 0.25C8.38982 0.25 9.83469 0.753282 10.9969 1.66548C12.1653 0.753282 13.6039 0.25 15.1179 0.25C16.2486 0.25 17.3731 0.539387 18.3594 1.08671C20.5015 2.27571 21.8271 4.5279 21.8271 6.97511L21.8333 6.9814ZM11.0031 16.701C13.6667 14.9333 18.5039 11.1712 19.1572 8.43463L19.176 8.34655L19.2012 8.25848C19.3331 7.84327 19.4022 7.41548 19.4022 6.9814C19.4022 5.42123 18.5541 3.98058 17.1846 3.22566C16.5564 2.87965 15.8403 2.69721 15.1179 2.69721C14.163 2.69721 13.2458 3.01176 12.492 3.59683L10.9969 4.76067L9.50174 3.59683C8.7479 3.01176 7.82444 2.69721 6.86958 2.69721C6.15343 2.69721 5.43728 2.87965 4.80279 3.23195C3.4396 3.98687 2.59152 5.42752 2.59152 6.98769C2.59152 7.42177 2.66063 7.84956 2.79255 8.26477L2.81768 8.35285L2.83652 8.44092C3.48357 11.1775 8.327 14.9396 10.9906 16.7073L11.0031 16.701Z" fill="#143360"/>
</svg>
