<svg width="23" height="21" viewBox="0 0 23 21" fill="none" xmlns="http://www.w3.org/2000/svg">
<path d="M23 7.40606C23 8.16051 22.8866 8.90804 22.6666 9.62096C21.5262 14.6183 13.2172 20.1556 12.2702 20.7716C12.0368 20.9239 11.7701 21 11.5033 21C11.2366 21 10.9698 20.9239 10.7364 20.7716C9.7895 20.1556 1.47376 14.6114 0.33343 9.61404C0.113366 8.8942 0 8.14667 0 7.39914C0 4.70666 1.41374 2.22874 3.68107 0.920567C4.73471 0.318392 5.92838 0 7.12206 0C8.7292 0 10.263 0.553724 11.4967 1.55735C12.737 0.553724 14.2641 0 15.8713 0C17.0716 0 18.2653 0.318392 19.3123 0.920567C21.5863 2.22874 22.9933 4.70666 22.9933 7.39914L23 7.40606ZM11.5033 18.0999C14.3308 16.1549 19.4656 12.0158 20.1592 9.00494L20.1792 8.90804L20.2059 8.81114C20.3459 8.35432 20.4193 7.88365 20.4193 7.40606C20.4193 5.68952 19.519 4.10448 18.0652 3.2739C17.3984 2.89321 16.6382 2.69249 15.8713 2.69249C14.8576 2.69249 13.884 3.03856 13.0838 3.68227L11.4967 4.96276L9.90954 3.68227C9.10931 3.03856 8.12902 2.69249 7.1154 2.69249C6.35518 2.69249 5.59495 2.89321 4.92143 3.28082C3.47434 4.1114 2.57408 5.69644 2.57408 7.41299C2.57408 7.89057 2.64743 8.36124 2.78747 8.81806L2.81415 8.91496L2.83415 9.01187C3.52102 12.0227 8.66251 16.1618 11.49 18.1068L11.5033 18.0999Z" fill="#D5DCE7"/>
</svg>
