<svg width="20" height="20" viewBox="0 0 20 20" fill="none" xmlns="http://www.w3.org/2000/svg">
<path d="M16.375 14.25V15.6667C16.375 16.0579 16.0579 16.375 15.6667 16.375C15.2755 16.375 14.9584 16.0579 14.9584 15.6667V14.25H14.6042C14.0174 14.25 13.5417 13.7743 13.5417 13.1875C13.5417 12.6007 14.0174 12.125 14.6042 12.125H16.7292C17.316 12.125 17.7917 12.6007 17.7917 13.1875C17.7917 13.7743 17.316 14.25 16.7292 14.25H16.375ZM5.04171 14.25V15.6667C5.04171 16.0579 4.72458 16.375 4.33337 16.375C3.94217 16.375 3.62504 16.0579 3.62504 15.6667V14.25H3.27087C2.68407 14.25 2.20837 13.7743 2.20837 13.1875C2.20837 12.6007 2.68407 12.125 3.27087 12.125H5.39587C5.98268 12.125 6.45837 12.6007 6.45837 13.1875C6.45837 13.7743 5.98268 14.25 5.39587 14.25H5.04171ZM9.29171 5.75V4.33333C9.29171 3.94213 9.60884 3.625 10 3.625C10.3912 3.625 10.7084 3.94213 10.7084 4.33333V5.75H11.0625C11.6493 5.75 12.125 6.2257 12.125 6.8125C12.125 7.3993 11.6493 7.875 11.0625 7.875H8.93754C8.35074 7.875 7.87504 7.3993 7.87504 6.8125C7.87504 6.2257 8.35074 5.75 8.93754 5.75H9.29171ZM9.29171 10C9.29171 9.6088 9.60884 9.29167 10 9.29167C10.3912 9.29167 10.7084 9.6088 10.7084 10V15.6667C10.7084 16.0579 10.3912 16.375 10 16.375C9.60884 16.375 9.29171 16.0579 9.29171 15.6667V10ZM4.33337 10.7083C3.94217 10.7083 3.62504 10.3912 3.62504 10V4.33333C3.62504 3.94213 3.94217 3.625 4.33337 3.625C4.72458 3.625 5.04171 3.94213 5.04171 4.33333V10C5.04171 10.3912 4.72458 10.7083 4.33337 10.7083ZM15.6667 10.7083C15.2755 10.7083 14.9584 10.3912 14.9584 10V4.33333C14.9584 3.94213 15.2755 3.625 15.6667 3.625C16.0579 3.625 16.375 3.94213 16.375 4.33333V10C16.375 10.3912 16.0579 10.7083 15.6667 10.7083Z" fill="#3C5781"/>
</svg>
