<svg width="14" height="16" viewBox="0 0 14 16" fill="none" xmlns="http://www.w3.org/2000/svg">
<path fill-rule="evenodd" clip-rule="evenodd" d="M9.395 0.547265C9.33162 0.421696 9.24194 0.310906 9.13192 0.222259C9.02191 0.133612 8.89407 0.0691376 8.75692 0.033121C8.61977 -0.00289558 8.47643 -0.00962953 8.33644 0.0133665C8.19646 0.0363625 8.06302 0.0885619 7.945 0.166496C7.6 0.393968 7.331 0.718364 7.123 1.03683C6.909 1.3632 6.72 1.74199 6.553 2.14056C6.219 2.93573 5.939 3.88914 5.713 4.84452C5.43969 6.01204 5.23501 7.19424 5.1 8.38519C4.69314 8.12577 4.36622 7.7607 4.155 7.32991C3.827 6.65738 3.757 5.81277 3.757 4.70507C3.75696 4.50949 3.69829 4.31832 3.58841 4.15572C3.47852 3.99311 3.32236 3.86638 3.13966 3.79154C2.95696 3.7167 2.75593 3.69712 2.56197 3.73526C2.36802 3.77341 2.18986 3.86757 2.05 4.00584C1.39917 4.64814 0.883031 5.41127 0.531232 6.2514C0.179433 7.09153 -0.00109811 7.99212 5.02513e-06 8.90145C8.80857e-05 10.0399 0.284051 11.1608 0.826743 12.1648C1.36943 13.1688 2.15411 14.025 3.11125 14.6574C4.0684 15.2899 5.16848 15.6792 6.31406 15.7907C7.45964 15.9023 8.61536 15.7327 9.67885 15.297C10.7423 14.8613 11.6808 14.173 12.4111 13.2929C13.1413 12.4129 13.6409 11.3683 13.8655 10.2517C14.0901 9.13512 14.0328 7.98098 13.6987 6.89152C13.3645 5.80206 12.7639 4.8109 11.95 4.00584C11.358 3.42133 10.97 3.03166 10.602 2.55496C10.239 2.08419 9.878 1.50364 9.395 0.547265ZM9.12 12.9762C8.70045 13.3906 8.16614 13.6728 7.58455 13.787C7.00295 13.9013 6.40016 13.8425 5.85231 13.6182C5.30446 13.3938 4.83611 13.014 4.50643 12.5265C4.17675 12.0391 4.00053 11.4659 4 10.8795C4 10.8795 4.879 11.374 6.5 11.374C6.5 10.385 7 7.41793 7.75 6.92343C8.25 7.91244 8.536 8.20222 9.121 8.78178C9.40004 9.0569 9.62134 9.38386 9.77219 9.74386C9.92304 10.1039 10.0005 10.4898 10 10.8795C10.0005 11.2692 9.92304 11.6551 9.77219 12.0151C9.62134 12.3751 9.40004 12.702 9.121 12.9772L9.12 12.9762Z" fill="#F28F16"/>
</svg>
