<svg width="15" height="16" viewBox="0 0 15 16" fill="none" xmlns="http://www.w3.org/2000/svg">
<path fill-rule="evenodd" clip-rule="evenodd" d="M10.145 0.547265C10.0816 0.421696 9.99194 0.310906 9.88192 0.222259C9.77191 0.133612 9.64407 0.0691376 9.50692 0.033121C9.36977 -0.00289558 9.22643 -0.00962953 9.08644 0.0133665C8.94646 0.0363625 8.81302 0.0885619 8.695 0.166496C8.35 0.393968 8.081 0.718364 7.873 1.03683C7.659 1.3632 7.47 1.74199 7.303 2.14056C6.969 2.93573 6.689 3.88914 6.463 4.84452C6.18969 6.01204 5.98501 7.19424 5.85 8.38519C5.44314 8.12577 5.11622 7.7607 4.905 7.32991C4.577 6.65738 4.507 5.81277 4.507 4.70507C4.50696 4.50949 4.44829 4.31832 4.33841 4.15572C4.22852 3.99311 4.07236 3.86638 3.88966 3.79154C3.70696 3.7167 3.50593 3.69712 3.31197 3.73526C3.11802 3.77341 2.93986 3.86757 2.8 4.00584C2.14917 4.64814 1.63303 5.41127 1.28123 6.2514C0.929433 7.09153 0.748902 7.99212 0.750005 8.90145C0.750088 10.0399 1.03405 11.1608 1.57674 12.1648C2.11943 13.1688 2.90411 14.025 3.86125 14.6574C4.8184 15.2899 5.91848 15.6792 7.06406 15.7907C8.20964 15.9023 9.36536 15.7327 10.4289 15.297C11.4923 14.8613 12.4308 14.173 13.1611 13.2929C13.8913 12.4129 14.3909 11.3683 14.6155 10.2517C14.8401 9.13512 14.7828 7.98098 14.4487 6.89152C14.1145 5.80206 13.5139 4.8109 12.7 4.00584C12.108 3.42133 11.72 3.03166 11.352 2.55496C10.989 2.08419 10.628 1.50364 10.145 0.547265ZM9.87 12.9762C9.45045 13.3906 8.91614 13.6728 8.33455 13.787C7.75295 13.9013 7.15016 13.8425 6.60231 13.6182C6.05446 13.3938 5.58611 13.014 5.25643 12.5265C4.92675 12.0391 4.75053 11.4659 4.75 10.8795C4.75 10.8795 5.629 11.374 7.25 11.374C7.25 10.385 7.75 7.41793 8.5 6.92343C9 7.91244 9.286 8.20222 9.871 8.78178C10.15 9.0569 10.3713 9.38386 10.5222 9.74386C10.673 10.1039 10.7505 10.4898 10.75 10.8795C10.7505 11.2692 10.673 11.6551 10.5222 12.0151C10.3713 12.3751 10.15 12.702 9.871 12.9772L9.87 12.9762Z" fill="#CA2F2F"/>
</svg>
