<svg width="17" height="18" viewBox="0 0 17 18" fill="none" xmlns="http://www.w3.org/2000/svg">
<path d="M2.04513 0.782227C1.50273 0.782227 0.982543 0.997696 0.599006 1.38123C0.215469 1.76477 0 2.28496 0 2.82736L0 15.0982C0 15.6406 0.215469 16.1608 0.599006 16.5443C0.982543 16.9278 1.50273 17.1433 2.04513 17.1433H14.3159C14.8583 17.1433 15.3785 16.9278 15.7621 16.5443C16.1456 16.1608 16.3611 15.6406 16.3611 15.0982V2.82736C16.3611 2.28496 16.1456 1.76477 15.7621 1.38123C15.3785 0.997696 14.8583 0.782227 14.3159 0.782227L2.04513 0.782227Z" fill="#00D06E"/>
<path d="M11.708 4.51624L12.7605 5.25457L8.19702 11.8367H7.1445L4.59961 8.27073L5.65213 7.28891L7.67076 9.17401L11.708 4.51624Z" fill="white"/>
</svg>
