<svg width="16" height="15" viewBox="0 0 16 15" fill="none" xmlns="http://www.w3.org/2000/svg">
<path d="M13.4583 14.1667C13.4583 14.3545 13.3837 14.5347 13.2509 14.6675C13.118 14.8004 12.9379 14.875 12.75 14.875H2.83333C2.64547 14.875 2.4653 14.8004 2.33247 14.6675C2.19963 14.5347 2.125 14.3545 2.125 14.1667V7.79168H0L7.31496 1.14185C7.44537 1.02319 7.61535 0.957428 7.79167 0.957428C7.96798 0.957428 8.13796 1.02319 8.26838 1.14185L15.5833 7.79168H13.4583V14.1667ZM7.79167 10.625C8.26132 10.625 8.71174 10.4384 9.04384 10.1063C9.37593 9.77425 9.5625 9.32384 9.5625 8.85418C9.5625 8.38453 9.37593 7.93411 9.04384 7.60201C8.71174 7.26992 8.26132 7.08335 7.79167 7.08335C7.32201 7.08335 6.87159 7.26992 6.5395 7.60201C6.2074 7.93411 6.02083 8.38453 6.02083 8.85418C6.02083 9.32384 6.2074 9.77425 6.5395 10.1063C6.87159 10.4384 7.32201 10.625 7.79167 10.625Z" fill="#D7DEE9"/>
</svg>
