<svg width="35" height="35" viewBox="0 0 35 35" fill="none" xmlns="http://www.w3.org/2000/svg">
<path d="M26.2121 21.8169C26.2121 24.2928 24.2053 26.2995 21.7294 26.2995H13.1166C10.6407 26.2995 8.63393 24.2928 8.63393 21.8169V13.2041C8.63393 10.7282 10.6407 8.72141 13.1166 8.72141H21.7294C24.2053 8.72141 26.2121 10.7282 26.2121 13.2041V21.8169ZM28.2568 13.2041C28.2568 9.60004 25.3361 6.67939 21.7294 6.67939H13.1166C9.51257 6.67939 6.59192 9.60004 6.59192 13.2041V21.8169C6.59192 25.4209 9.51257 28.3416 13.1166 28.3416H21.7294C25.3334 28.3416 28.2568 25.4209 28.2568 21.8169V13.2041ZM17.461 21.0793C15.5708 21.0793 14.0332 19.5416 14.0332 17.6515C14.0332 15.7613 15.5708 14.2237 17.461 14.2237C19.3511 14.2237 20.8887 15.7613 20.8887 17.6515C20.8887 19.5416 19.3511 21.0793 17.461 21.0793ZM17.461 12.301C14.5105 12.301 12.1105 14.701 12.1105 17.6515C12.1105 20.602 14.5105 23.0019 17.461 23.0019C20.4114 23.0019 22.8114 20.602 22.8114 17.6515C22.8114 14.701 20.4114 12.301 17.461 12.301ZM23.1233 10.6685C22.4182 10.6685 21.8487 11.238 21.8487 11.9431C21.8487 12.6454 22.4182 13.2176 23.1233 13.2176C23.8256 13.2176 24.3951 12.6481 24.3951 11.9431C24.3951 11.2407 23.8256 10.6685 23.1233 10.6685ZM17.3199 2.07469C8.73156 2.07469 1.74315 9.0631 1.74315 17.6515C1.74315 26.2399 8.73156 33.2283 17.3199 33.2283C25.9083 33.2283 32.8967 26.2399 32.8967 17.6515C32.8967 9.0631 25.9083 2.07469 17.3199 2.07469ZM17.3199 34.8635C7.82851 34.8635 0.10791 27.1429 0.10791 17.6515C0.10791 8.16006 7.82851 0.439453 17.3199 0.439453C26.8114 0.439453 34.532 8.16006 34.532 17.6515C34.532 27.1429 26.8114 34.8635 17.3199 34.8635Z" fill="#333333"/>
</svg>
