<svg width="16" height="16" viewBox="0 0 16 16" fill="none" xmlns="http://www.w3.org/2000/svg">
<path d="M6.2309 6.927C6.26092 7.01687 6.23756 7.116 6.17056 7.183L6.52411 7.53655L6.17056 7.183L1.14645 12.2071L1 12.3536V12.5607V14.25C1 14.6643 1.33583 15 1.75 15H3.43934H3.64654L3.79301 14.8534L3.85367 14.7927L4 14.6463V14.4393V13.25C4 13.1119 4.11194 13 4.25 13H5.43934H5.64654L5.79301 12.8534L5.85367 12.7927L6 12.6463V12.4393V11.25C6 11.1119 6.11194 11 6.25 11H7.43934H7.64645L7.79289 10.8536L8.817 9.82944C8.88401 9.76244 8.98313 9.73908 9.07298 9.76911L9.073 9.76911C9.52107 9.91881 10.0008 10 10.5 10C12.9852 10 15 7.98529 15 5.5C15 3.01471 12.9852 1 10.5 1C8.01472 1 6 3.01472 6 5.5C6 5.9992 6.08118 6.47892 6.2309 6.927ZM6.2309 6.927L6.70513 6.76856L6.2309 6.927ZM5.50528 7.14116L5.70327 6.94318L5.63792 6.67092C5.54775 6.29523 5.5 5.90311 5.5 5.5C5.5 2.73857 7.73857 0.5 10.5 0.5C13.2615 0.5 15.5 2.73857 15.5 5.5C15.5 8.26143 13.2615 10.5 10.5 10.5C10.0969 10.5 9.70478 10.4522 9.329 10.3621L9.05679 10.2968L8.85885 10.4947L7.92679 11.4267L7.92671 11.4268C7.87988 11.4737 7.81633 11.5 7.75 11.5H7H6.5V12V12.75C6.5 12.8163 6.47364 12.8799 6.42684 12.9267L6.42678 12.9267L5.92678 13.4267L5.92671 13.4268C5.87988 13.4737 5.81633 13.5 5.75 13.5H5H4.5V14V14.75C4.5 14.8163 4.47364 14.8799 4.42684 14.9267L4.42678 14.9267L3.92678 15.4267L3.92671 15.4268C3.87988 15.4737 3.81633 15.5 3.75 15.5H1.75C1.05964 15.5 0.5 14.9404 0.5 14.25V12.25C0.5 12.1837 0.526362 12.1201 0.573158 12.0733L0.573224 12.0733L5.50528 7.14116ZM11.5 5C11.5 5.27614 11.2762 5.5 11 5.5C10.7238 5.5 10.5 5.27614 10.5 5C10.5 4.72386 10.7238 4.5 11 4.5C11.2762 4.5 11.5 4.72386 11.5 5Z" stroke="#D7DEE9"/>
</svg>
