<svg width="13" height="11" viewBox="0 0 13 11" fill="none" xmlns="http://www.w3.org/2000/svg">
<path fill-rule="evenodd" clip-rule="evenodd" d="M12.476 5.49997C12.476 5.69888 12.3969 5.88965 12.2563 6.0303C12.1156 6.17095 11.9249 6.24997 11.726 6.24997H3.03645L6.25695 9.46897C6.32668 9.5387 6.382 9.62149 6.41974 9.71259C6.45747 9.8037 6.4769 9.90135 6.4769 9.99997C6.4769 10.0986 6.45747 10.1962 6.41974 10.2873C6.382 10.3785 6.32668 10.4612 6.25695 10.531C6.18722 10.6007 6.10443 10.656 6.01333 10.6938C5.92222 10.7315 5.82457 10.7509 5.72595 10.7509C5.62733 10.7509 5.52968 10.7315 5.43857 10.6938C5.34747 10.656 5.26468 10.6007 5.19495 10.531L0.69495 6.03097C0.625105 5.9613 0.569691 5.87854 0.531881 5.78742C0.494071 5.6963 0.474609 5.59862 0.474609 5.49997C0.474609 5.40132 0.494071 5.30364 0.531881 5.21252C0.569691 5.1214 0.625105 5.03864 0.69495 4.96897L5.19495 0.468971C5.33578 0.328141 5.52679 0.249023 5.72595 0.249023C5.92511 0.249023 6.11612 0.328141 6.25695 0.468971C6.39778 0.609801 6.4769 0.800807 6.4769 0.999971C6.4769 1.19913 6.39778 1.39014 6.25695 1.53097L3.03645 4.74997H11.726C11.9249 4.74997 12.1156 4.82899 12.2563 4.96964C12.3969 5.11029 12.476 5.30106 12.476 5.49997Z" fill="white"/>
</svg>
