<svg width="36" height="35" viewBox="0 0 36 35" fill="none" xmlns="http://www.w3.org/2000/svg">
<path d="M18.0422 2.26804C9.53244 2.26804 2.60641 9.19136 2.60641 17.7038C2.60641 26.2136 9.53244 33.1396 18.0422 33.1396C26.5519 33.1396 33.4753 26.2163 33.4753 17.7038C33.4753 9.19407 26.5519 2.26804 18.0422 2.26804ZM18.0422 34.9999C8.50466 34.9999 0.746094 27.2414 0.746094 17.7038C0.746094 8.16629 8.50466 0.407715 18.0422 0.407715C27.5797 0.407715 35.3383 8.16629 35.3383 17.7038C35.3383 27.2414 27.5797 34.9999 18.0422 34.9999Z" fill="#333333"/>
<path d="M10.0939 25.7659H13.4267C13.5867 25.7659 13.7169 25.6358 13.7169 25.4758V14.2894C13.7169 14.1294 13.5867 13.9993 13.4267 13.9993H10.0939C9.93388 13.9993 9.80371 14.1294 9.80371 14.2894V25.4758C9.80371 25.6358 9.93388 25.7659 10.0939 25.7659ZM27.8212 19.0189V25.4758C27.8212 25.6358 27.691 25.7659 27.531 25.7659H24.1982C24.0382 25.7659 23.908 25.6358 23.908 25.4758V19.469C23.908 17.888 23.3439 16.8087 21.9256 16.8087C20.8436 16.8087 20.2009 17.5355 19.9189 18.2379C19.8158 18.4901 19.7887 18.8372 19.7887 19.1924V25.4758C19.7887 25.6358 19.6585 25.7659 19.4985 25.7659H16.1657C16.0057 25.7659 15.8755 25.6358 15.8755 25.4758C15.8837 23.8758 15.9162 16.1145 15.8837 14.2921C15.881 14.1294 16.0111 13.9993 16.1738 13.9993H19.5012C19.6612 13.9993 19.7914 14.1294 19.7914 14.2894V15.667C19.7833 15.6806 19.7724 15.6942 19.7643 15.705H19.7914V15.667C20.3094 14.8671 21.2368 13.7227 23.3168 13.7227C25.8903 13.7227 27.8212 15.404 27.8212 19.0189Z" fill="#333333"/>
<path d="M13.7361 10.4114C13.7361 11.5667 12.7978 12.505 11.6426 12.505C10.4846 12.505 9.54907 11.5667 9.54907 10.4114C9.54907 9.25346 10.4874 8.31787 11.6426 8.31787C12.7978 8.31787 13.7361 9.25617 13.7361 10.4114Z" fill="#333333"/>
</svg>
