<svg id="Слой_1" data-name="Слой 1" xmlns="http://www.w3.org/2000/svg" viewBox="0 0 786 397"><title>livo logo_black</title><path d="M96.13,299.63q0,17.49,4.5,25.5t14.5,8a64.85,64.85,0,0,0,11.5-1,69.92,69.92,0,0,0,14.5-4.5l7,51q-8,4-24.5,8a144.19,144.19,0,0,1-34,4q-28.5,0-43.5-13-15-13.5-15-44v-300h65Zm85.47-166h65v250h-65Zm-9.5-70.5a32.51,32.51,0,0,1,10.5-24.5q11-10.5,30-10.5t30.5,10.5q12,10,12,24.5t-12,24.5q-11.5,9.5-30.5,9.5t-30-9.5A32.54,32.54,0,0,1,172.1,63.13Zm224.78,201.5,8.5,38.5h2.5l7-39.5,42.5-130h70l-104.5,252.5h-39.5l-108.5-252.5h75.5Zm136.36-6q0-63.51,31-97.5,31-34.5,87-34.5,30,0,52,9.5a95.9,95.9,0,0,1,36.5,27q14.5,17,21.5,41.5,7.5,24.5,7.5,54,0,63.5-31,98-30.5,34-86.5,34-30,0-52-9.5a103.14,103.14,0,0,1-37-26.5q-14.5-17.5-22-42Q533.24,288.12,533.24,258.63Zm67,0a145.64,145.64,0,0,0,3,30.5,85.06,85.06,0,0,0,9,24.5,46.21,46.21,0,0,0,15.5,16.5q10,5.49,23.5,5.5,25.5,0,38-18.5t12.5-58.5q0-34.5-11.5-55.5-11.5-21.51-39-21.5-24,0-37.5,18T600.24,258.63Z"/></svg>