<svg width="17" height="17" viewBox="0 0 17 17" fill="none" xmlns="http://www.w3.org/2000/svg">
<path d="M13.0078 12.2995L8.5 16.8073L3.99217 12.2995C3.10062 11.4079 2.49347 10.272 2.24749 9.03539C2.00152 7.79876 2.12777 6.51697 2.61028 5.35209C3.09279 4.18722 3.90989 3.19158 4.95825 2.49109C6.00661 1.7906 7.23915 1.41672 8.5 1.41672C9.76086 1.41672 10.9934 1.7906 12.0418 2.49109C13.0901 3.19158 13.9072 4.18722 14.3897 5.35209C14.8722 6.51697 14.9985 7.79876 14.7525 9.03539C14.5065 10.272 13.8994 11.4079 13.0078 12.2995ZM8.5 10.625C9.25145 10.625 9.97212 10.3265 10.5035 9.79513C11.0348 9.26378 11.3333 8.54311 11.3333 7.79166C11.3333 7.04022 11.0348 6.31955 10.5035 5.78819C9.97212 5.25684 9.25145 4.95833 8.5 4.95833C7.74856 4.95833 7.02789 5.25684 6.49653 5.78819C5.96518 6.31955 5.66667 7.04022 5.66667 7.79166C5.66667 8.54311 5.96518 9.26378 6.49653 9.79513C7.02789 10.3265 7.74856 10.625 8.5 10.625ZM8.5 9.20833C8.12428 9.20833 7.76395 9.05907 7.49827 8.7934C7.23259 8.52772 7.08334 8.16739 7.08334 7.79166C7.08334 7.41594 7.23259 7.0556 7.49827 6.78993C7.76395 6.52425 8.12428 6.375 8.5 6.375C8.87573 6.375 9.23606 6.52425 9.50174 6.78993C9.76741 7.0556 9.91667 7.41594 9.91667 7.79166C9.91667 8.16739 9.76741 8.52772 9.50174 8.7934C9.23606 9.05907 8.87573 9.20833 8.5 9.20833Z" fill="#D7DEE9"/>
</svg>
