<svg width="13" height="16" viewBox="0 0 13 16" fill="none" xmlns="http://www.w3.org/2000/svg">
<path d="M10.725 11.0167L6.5 15.2417L2.27501 11.0167C1.4394 10.1811 0.870346 9.11642 0.639805 7.95739C0.409265 6.79835 0.527594 5.59698 0.97983 4.5052C1.43207 3.41341 2.1979 2.48025 3.18048 1.82371C4.16306 1.16717 5.31826 0.816748 6.5 0.816748C7.68174 0.816748 8.83694 1.16717 9.81953 1.82371C10.8021 2.48025 11.5679 3.41341 12.0202 4.5052C12.4724 5.59698 12.5907 6.79835 12.3602 7.95739C12.1297 9.11642 11.5606 10.1811 10.725 11.0167ZM6.5 10.025C7.35754 10.025 8.17995 9.68437 8.78631 9.078C9.39268 8.47164 9.73334 7.64923 9.73334 6.79169C9.73334 5.93416 9.39268 5.11175 8.78631 4.50538C8.17995 3.89901 7.35754 3.55836 6.5 3.55836C5.64247 3.55836 4.82006 3.89901 4.21369 4.50538C3.60732 5.11175 3.26667 5.93416 3.26667 6.79169C3.26667 7.64923 3.60732 8.47164 4.21369 9.078C4.82006 9.68437 5.64247 10.025 6.5 10.025ZM6.5 7.80836C6.23037 7.80836 5.97177 7.70125 5.78111 7.51058C5.59045 7.31992 5.48334 7.06133 5.48334 6.79169C5.48334 6.52206 5.59045 6.26346 5.78111 6.0728C5.97177 5.88214 6.23037 5.77503 6.5 5.77503C6.76964 5.77503 7.02823 5.88214 7.21889 6.0728C7.40956 6.26346 7.51667 6.52206 7.51667 6.79169C7.51667 7.06133 7.40956 7.31992 7.21889 7.51058C7.02823 7.70125 6.76964 7.80836 6.5 7.80836Z" stroke="#D7DEE9" stroke-width="0.8"/>
</svg>
