<svg width="98" height="44" viewBox="0 0 98 44" fill="none" xmlns="http://www.w3.org/2000/svg">
<path d="M55.4897 15.2919V14.1683C55.49 14.1031 55.4765 14.0385 55.4501 13.9787C55.4237 13.919 55.385 13.8655 55.3366 13.8217L54.3932 12.9658C54.3098 12.8901 54.2018 12.847 54.089 12.8443C53.9762 12.8415 53.8662 12.8795 53.7792 12.9511L52.7206 13.8217C52.6684 13.8663 52.6266 13.9218 52.5982 13.9842C52.5697 14.0466 52.5553 14.1145 52.556 14.1831V15.2919C52.5564 15.416 52.606 15.5348 52.6939 15.6225C52.7818 15.7102 52.9009 15.7597 53.0252 15.7601H55.0287C55.1517 15.7579 55.269 15.7077 55.3552 15.6201C55.4414 15.5325 55.4897 15.4147 55.4897 15.2919Z" fill="white"/>
<path d="M49.2354 20.294C48.6739 19.2792 47.8466 18.4358 46.8418 17.8539C45.837 17.272 44.6926 16.9736 43.531 16.9905C42.5012 16.979 41.4841 17.2181 40.5677 17.687C40.2011 17.8784 39.8538 18.1045 39.5306 18.3622V12.8131H36.6117V23.8193C36.6131 25.0101 36.9276 26.1798 37.5237 27.2115C38.0995 28.2056 38.9296 29.0292 39.929 29.5983C40.9656 30.1871 42.1408 30.4894 43.3335 30.4739C44.5445 30.4909 45.7381 30.1846 46.7907 29.5868C47.7961 29.0107 48.6301 28.1785 49.2074 27.1753C49.806 26.1249 50.1123 24.9339 50.0948 23.7256C50.112 22.5267 49.8159 21.3439 49.2354 20.294ZM47.2006 23.7191C47.2139 24.4368 47.0397 25.1456 46.6952 25.7757C46.364 26.3727 45.8761 26.8683 45.2837 27.2093C44.6914 27.5502 44.0172 27.7236 43.3335 27.7109C42.6548 27.7225 41.9859 27.5486 41.3991 27.2081C40.8124 26.8676 40.3302 26.3734 40.0047 25.779C39.6779 25.1437 39.5075 24.4398 39.5075 23.7256C39.5075 23.0115 39.6779 22.3076 40.0047 21.6722C40.3189 21.086 40.791 20.5989 41.3678 20.2661C41.972 19.9308 42.652 19.7548 43.3434 19.7548C44.0347 19.7548 44.7147 19.9308 45.3189 20.2661C45.8978 20.6022 46.3732 21.0903 46.6935 21.6772C47.0358 22.3029 47.2105 23.0062 47.2006 23.7191Z" fill="white"/>
<path d="M55.4781 16.9856H52.5609V30.5199H55.4781V16.9856Z" fill="white"/>
<path d="M70.1894 19.8291C69.6794 18.92 68.9159 18.1782 67.9916 17.6936C67.0378 17.2053 65.9784 16.9582 64.9064 16.9741C63.8993 16.9625 62.9054 17.2031 62.0156 17.6739C61.8392 17.7681 61.6678 17.8712 61.5019 17.9827V16.9971H58.5831V30.5068H61.5019V22.5478C61.5019 22.262 61.6435 19.9195 64.7566 19.7914C65.3235 19.7558 65.8896 19.8727 66.3957 20.1299C66.9019 20.3871 67.3297 20.775 67.6343 21.2534C67.9224 21.7462 68.069 22.4033 68.069 23.1901V30.4953H70.9862V23.1901C70.9862 21.8858 70.7195 20.7556 70.1894 19.8291Z" fill="white"/>
<path d="M86.3624 23.7338C86.3663 22.5213 86.0573 21.3282 85.4652 20.2693C84.8973 19.2674 84.0692 18.4366 83.0682 17.8644C82.0083 17.291 80.8216 16.9907 79.616 16.9907C78.4103 16.9907 77.2236 17.291 76.1637 17.8644C75.1572 18.4339 74.3243 19.265 73.7535 20.2693C73.1797 21.3329 72.8794 22.5218 72.8794 23.7297C72.8794 24.9375 73.1797 26.1265 73.7535 27.1901C74.3246 28.1946 75.1582 29.0258 76.1653 29.595C77.2253 30.1684 78.4119 30.4687 79.6176 30.4687C80.8233 30.4687 82.0099 30.1684 83.0699 29.595C84.0712 29.0213 84.9018 28.1925 85.4767 27.1933C86.0748 26.1427 86.3811 24.9518 86.3641 23.7437L86.3624 23.7338ZM83.4666 23.7338C83.4805 24.4517 83.3105 25.1613 82.9727 25.7954C82.6559 26.3776 82.1842 26.8614 81.6096 27.1933C81.0013 27.5278 80.318 27.7032 79.6234 27.7032C78.9288 27.7032 78.2455 27.5278 77.6371 27.1933C77.0592 26.8591 76.5834 26.3741 76.2608 25.7905C75.9157 25.1605 75.741 24.4517 75.7538 23.7338C75.7417 23.0116 75.917 22.2987 76.2625 21.664C76.5823 21.0767 77.0579 20.5885 77.6371 20.2529C78.2455 19.9184 78.9288 19.743 79.6234 19.743C80.318 19.743 81.0013 19.9184 81.6096 20.2529C82.1853 20.5873 82.6567 21.0747 82.9711 21.6607C83.3103 22.3008 83.4808 23.0164 83.4666 23.7404V23.7338Z" fill="white"/>
<path d="M27.0633 30.4591H15.6743C14.6307 30.4578 13.6303 30.0435 12.8924 29.3072C12.1545 28.5709 11.7394 27.5727 11.738 26.5314V20.2217C11.7369 19.6422 11.8647 19.0697 12.1124 18.5455C12.3601 18.0213 12.7215 17.5587 13.1703 17.1909L18.9817 12.2381C19.7123 11.6374 20.6354 11.3195 21.5818 11.3427C22.5282 11.366 23.4345 11.7288 24.1346 12.3646L29.7105 17.2385C30.1149 17.6073 30.438 18.0559 30.6593 18.5558C30.8807 19.0558 30.9954 19.5963 30.9963 20.1429V26.5297C30.9958 27.5714 30.581 28.5704 29.843 29.3071C29.1049 30.0439 28.104 30.4582 27.06 30.4591H27.0633ZM21.4857 13.8792C21.1627 13.8785 20.8496 13.9901 20.6 14.1946L14.787 19.1474C14.6278 19.2777 14.4996 19.4417 14.4116 19.6275C14.3236 19.8133 14.2781 20.0162 14.2783 20.2217V26.5314C14.2783 26.901 14.4253 27.2555 14.6871 27.517C14.9488 27.7785 15.3039 27.9256 15.6743 27.926H27.0633C27.4331 27.926 27.7878 27.7794 28.0493 27.5185C28.3108 27.2576 28.4577 26.9037 28.4577 26.5346V20.1429C28.4575 19.949 28.4169 19.7573 28.3384 19.58C28.2598 19.4026 28.1452 19.2436 28.0017 19.1129L22.4257 14.2406C22.1685 14.0073 21.8332 13.8784 21.4857 13.8792Z" fill="#F28F16"/>
</svg>
