<svg width="19" height="18" viewBox="0 0 19 18" fill="none" xmlns="http://www.w3.org/2000/svg">
<path d="M17.3 12.0994V6.89941H11.8H0.800018V14.8994C0.800018 16.1994 1.80001 17.1994 3.10001 17.1994H11.8H15C16.3 17.1994 17.3 16.1994 17.3 14.8994V12.0994Z" stroke="#D7DEE9" stroke-width="1.5" stroke-miterlimit="10" stroke-linecap="round" stroke-linejoin="round"/>
<path d="M17.3 6.8998H0.800018V4.5998C0.800018 3.2998 1.80001 2.2998 3.10001 2.2998H14.9C16.2 2.2998 17.2 3.2998 17.2 4.5998V6.8998H17.3Z" stroke="#D7DEE9" stroke-width="1.5" stroke-miterlimit="10" stroke-linecap="round" stroke-linejoin="round"/>
<path d="M4.5 11.1C4.94183 11.1 5.30002 10.7418 5.30002 10.3C5.30002 9.85817 4.94183 9.5 4.5 9.5C4.05817 9.5 3.70001 9.85817 3.70001 10.3C3.70001 10.7418 4.05817 11.1 4.5 11.1Z" fill="#D7DEE9"/>
<path d="M9 11.1C9.44183 11.1 9.80002 10.7418 9.80002 10.3C9.80002 9.85817 9.44183 9.5 9 9.5C8.55817 9.5 8.20001 9.85817 8.20001 10.3C8.20001 10.7418 8.55817 11.1 9 11.1Z" fill="#D7DEE9"/>
<path d="M13.5 11.1C13.9418 11.1 14.3 10.7418 14.3 10.3C14.3 9.85817 13.9418 9.5 13.5 9.5C13.0582 9.5 12.7 9.85817 12.7 10.3C12.7 10.7418 13.0582 11.1 13.5 11.1Z" fill="#D7DEE9"/>
<path d="M4.5 14.6996C4.94183 14.6996 5.30002 14.3414 5.30002 13.8996C5.30002 13.4578 4.94183 13.0996 4.5 13.0996C4.05817 13.0996 3.70001 13.4578 3.70001 13.8996C3.70001 14.3414 4.05817 14.6996 4.5 14.6996Z" fill="#D7DEE9"/>
<path d="M9 14.6996C9.44183 14.6996 9.80002 14.3414 9.80002 13.8996C9.80002 13.4578 9.44183 13.0996 9 13.0996C8.55817 13.0996 8.20001 13.4578 8.20001 13.8996C8.20001 14.3414 8.55817 14.6996 9 14.6996Z" fill="#D7DEE9"/>
<path d="M5.30002 3.7998V0.799805" stroke="#D7DEE9" stroke-width="1.5" stroke-miterlimit="10" stroke-linecap="round" stroke-linejoin="round"/>
<path d="M12.8 3.7998V0.799805" stroke="#D7DEE9" stroke-width="1.5" stroke-miterlimit="10" stroke-linecap="round" stroke-linejoin="round"/>
</svg>
