<svg width="17" height="19" viewBox="0 0 17 19" fill="none" xmlns="http://www.w3.org/2000/svg">
<path d="M10.55 15V15.8C10.55 16.7 9.94996 17.6 9.04996 17.7C7.94996 17.9 6.94995 17 6.94995 15.9V15H10.55Z" stroke="#D7DEE9" stroke-width="1.5" stroke-miterlimit="10" stroke-linecap="round" stroke-linejoin="round"/>
<path d="M15.05 14.9991H2.44995C1.94995 14.9991 1.44995 14.5991 1.44995 13.9991V13.7991C1.44995 13.1991 1.74995 12.5991 2.14995 12.1991C2.84995 11.5991 3.24995 10.7991 3.24995 9.89911V6.89911C3.24995 4.19911 5.14995 1.69911 7.84995 1.29911C9.74995 0.999106 11.45 1.59911 12.65 2.79911C13.65 3.79911 14.25 5.19911 14.25 6.69911V9.89911C14.25 10.7991 14.6499 11.5991 15.3499 12.1991C15.8499 12.5991 16.05 13.0991 16.05 13.7991V13.9991C16.05 14.5991 15.65 14.9991 15.05 14.9991Z" stroke="#D7DEE9" stroke-width="1.5" stroke-miterlimit="10" stroke-linecap="round" stroke-linejoin="round"/>
</svg>
