<svg width="44" height="35" viewBox="0 0 44 35" fill="none" xmlns="http://www.w3.org/2000/svg">
<path d="M23.5001 21.0986C23.5001 21.4575 23.6427 21.8016 23.8964 22.0553C24.1501 22.309 24.4942 22.4516 24.8531 22.4516H26.206C26.5648 22.4516 26.9089 22.309 27.1627 22.0553C27.4164 21.8016 27.5589 21.4575 27.5589 21.0986C27.5589 20.7398 27.4164 20.3957 27.1627 20.142C26.9089 19.8882 26.5648 19.7457 26.206 19.7457H24.8531C24.4942 19.7457 24.1501 19.8882 23.8964 20.142C23.6427 20.3957 23.5001 20.7398 23.5001 21.0986ZM18.0884 19.7457H19.4413C19.8001 19.7457 20.1442 19.8882 20.398 20.142C20.6517 20.3957 20.7942 20.7398 20.7942 21.0986C20.7942 21.4575 20.6517 21.8016 20.398 22.0553C20.1442 22.309 19.8001 22.4516 19.4413 22.4516H18.0884C17.7295 22.4516 17.3854 22.309 17.1317 22.0553C16.878 21.8016 16.7354 21.4575 16.7354 21.0986C16.7354 20.7398 16.878 20.3957 17.1317 20.142C17.3854 19.8882 17.7295 19.7457 18.0884 19.7457ZM24.8531 25.1575H26.206C26.5648 25.1575 26.9089 25.3 27.1627 25.5537C27.4164 25.8075 27.5589 26.1516 27.5589 26.5104C27.5589 26.8692 27.4164 27.2134 27.1627 27.4671C26.9089 27.7208 26.5648 27.8633 26.206 27.8633H24.8531C24.4942 27.8633 24.1501 27.7208 23.8964 27.4671C23.6427 27.2134 23.5001 26.8692 23.5001 26.5104C23.5001 26.1516 23.6427 25.8075 23.8964 25.5537C24.1501 25.3 24.4942 25.1575 24.8531 25.1575ZM18.0884 25.1575H19.4413C19.8001 25.1575 20.1442 25.3 20.398 25.5537C20.6517 25.8075 20.7942 26.1516 20.7942 26.5104C20.7942 26.8692 20.6517 27.2134 20.398 27.4671C20.1442 27.7208 19.8001 27.8633 19.4413 27.8633H18.0884C17.7295 27.8633 17.3854 27.7208 17.1317 27.4671C16.878 27.2134 16.7354 26.8692 16.7354 26.5104C16.7354 26.1516 16.878 25.8075 17.1317 25.5537C17.3854 25.3 17.7295 25.1575 18.0884 25.1575ZM24.8531 8.92218H26.206C26.5648 8.92218 26.9089 9.06472 27.1627 9.31844C27.4164 9.57217 27.5589 9.9163 27.5589 10.2751C27.5589 10.6339 27.4164 10.9781 27.1627 11.2318C26.9089 11.4855 26.5648 11.6281 26.206 11.6281H24.8531C24.4942 11.6281 24.1501 11.4855 23.8964 11.2318C23.6427 10.9781 23.5001 10.6339 23.5001 10.2751C23.5001 9.9163 23.6427 9.57217 23.8964 9.31844C24.1501 9.06472 24.4942 8.92218 24.8531 8.92218ZM18.0884 8.92218H19.4413C19.8001 8.92218 20.1442 9.06472 20.398 9.31844C20.6517 9.57217 20.7942 9.9163 20.7942 10.2751C20.7942 10.6339 20.6517 10.9781 20.398 11.2318C20.1442 11.4855 19.8001 11.6281 19.4413 11.6281H18.0884C17.7295 11.6281 17.3854 11.4855 17.1317 11.2318C16.878 10.9781 16.7354 10.6339 16.7354 10.2751C16.7354 9.9163 16.878 9.57217 17.1317 9.31844C17.3854 9.06472 17.7295 8.92218 18.0884 8.92218ZM24.8531 14.3339H26.206C26.5648 14.3339 26.9089 14.4765 27.1627 14.7302C27.4164 14.9839 27.5589 15.3281 27.5589 15.6869C27.5589 16.0457 27.4164 16.3898 27.1627 16.6436C26.9089 16.8973 26.5648 17.0398 26.206 17.0398H24.8531C24.4942 17.0398 24.1501 16.8973 23.8964 16.6436C23.6427 16.3898 23.5001 16.0457 23.5001 15.6869C23.5001 15.3281 23.6427 14.9839 23.8964 14.7302C24.1501 14.4765 24.4942 14.3339 24.8531 14.3339ZM18.0884 14.3339H19.4413C19.8001 14.3339 20.1442 14.4765 20.398 14.7302C20.6517 14.9839 20.7942 15.3281 20.7942 15.6869C20.7942 16.0457 20.6517 16.3898 20.398 16.6436C20.1442 16.8973 19.8001 17.0398 19.4413 17.0398H18.0884C17.7295 17.0398 17.3854 16.8973 17.1317 16.6436C16.878 16.3898 16.7354 16.0457 16.7354 15.6869C16.7354 15.3281 16.878 14.9839 17.1317 14.7302C17.3854 14.4765 17.7295 14.3339 18.0884 14.3339ZM0.500114 15.6869V27.8633C0.502262 29.6568 1.21566 31.3762 2.48382 32.6443C3.75198 33.9125 5.47137 34.6259 7.26482 34.6281H26.206C27.9994 34.6259 29.7188 33.9125 30.987 32.6443C32.2552 31.3762 32.9686 29.6568 32.9707 27.8633V8.92218C32.9686 7.12873 32.2552 5.40934 30.987 4.14118C29.7188 2.87302 27.9994 2.15962 26.206 2.15747H18.0884C16.2949 2.15962 14.5755 2.87302 13.3074 4.14118C12.0392 5.40934 11.3258 7.12873 11.3236 8.92218H7.26482C5.47137 8.92433 3.75198 9.63772 2.48382 10.9059C1.21566 12.174 0.502262 13.8934 0.500114 15.6869ZM26.206 31.9222H14.0295V8.92218C14.0295 7.84571 14.4571 6.81333 15.2183 6.05216C15.9795 5.29098 17.0119 4.86335 18.0884 4.86335H26.206C27.2825 4.86335 28.3148 5.29098 29.076 6.05216C29.8372 6.81333 30.2648 7.84571 30.2648 8.92218V27.8633C30.2648 28.9398 29.8372 29.9722 29.076 30.7334C28.3148 31.4945 27.2825 31.9222 26.206 31.9222ZM3.206 15.6869C3.206 14.6104 3.63362 13.578 4.3948 12.8169C5.15597 12.0557 6.18835 11.6281 7.26482 11.6281H11.3236V31.9222H7.26482C6.18835 31.9222 5.15597 31.4945 4.3948 30.7334C3.63362 29.9722 3.206 28.9398 3.206 27.8633V15.6869ZM7.26482 19.7457C7.53241 19.7457 7.79399 19.8251 8.01648 19.9737C8.23897 20.1224 8.41237 20.3337 8.51477 20.5809C8.61717 20.8281 8.64397 21.1001 8.59177 21.3626C8.53957 21.625 8.41071 21.8661 8.2215 22.0553C8.03228 22.2445 7.7912 22.3734 7.52876 22.4256C7.26631 22.4778 6.9943 22.451 6.74708 22.3486C6.49987 22.2462 6.28856 22.0728 6.1399 21.8503C5.99123 21.6278 5.91188 21.3662 5.91188 21.0986C5.91188 20.7398 6.05442 20.3957 6.30815 20.142C6.56187 19.8882 6.906 19.7457 7.26482 19.7457ZM7.26482 25.1575C7.53241 25.1575 7.79399 25.2368 8.01648 25.3855C8.23897 25.5341 8.41237 25.7454 8.51477 25.9927C8.61717 26.2399 8.64397 26.5119 8.59177 26.7744C8.53957 27.0368 8.41071 27.2779 8.2215 27.4671C8.03228 27.6563 7.7912 27.7852 7.52876 27.8374C7.26631 27.8896 6.9943 27.8628 6.74708 27.7604C6.49987 27.658 6.28856 27.4846 6.1399 27.2621C5.99123 27.0396 5.91188 26.778 5.91188 26.5104C5.91188 26.1516 6.05442 25.8075 6.30815 25.5537C6.56187 25.3 6.906 25.1575 7.26482 25.1575ZM7.26482 14.3339C7.53241 14.3339 7.79399 14.4133 8.01648 14.562C8.23897 14.7106 8.41237 14.9219 8.51477 15.1691C8.61717 15.4164 8.64397 15.6884 8.59177 15.9508C8.53957 16.2133 8.41071 16.4543 8.2215 16.6436C8.03228 16.8328 7.7912 16.9616 7.52876 17.0138C7.26631 17.066 6.9943 17.0392 6.74708 16.9368C6.49987 16.8344 6.28856 16.661 6.1399 16.4385C5.99123 16.216 5.91188 15.9545 5.91188 15.6869C5.91188 15.3281 6.05442 14.9839 6.30815 14.7302C6.56187 14.4765 6.906 14.3339 7.26482 14.3339Z" fill="#143360"/>
<path d="M23.8964 22.0553C23.6427 21.8016 23.5001 21.4575 23.5001 21.0986C23.5001 20.7398 23.6427 20.3957 23.8964 20.142C24.1501 19.8882 24.4942 19.7457 24.8531 19.7457H26.206C26.5648 19.7457 26.9089 19.8882 27.1627 20.142C27.4164 20.3957 27.5589 20.7398 27.5589 21.0986C27.5589 21.4575 27.4164 21.8016 27.1627 22.0553C26.9089 22.309 26.5648 22.4516 26.206 22.4516H24.8531C24.4942 22.4516 24.1501 22.309 23.8964 22.0553Z" fill="#143360"/>
<path d="M19.4413 19.7457H18.0884C17.7295 19.7457 17.3854 19.8882 17.1317 20.142C16.878 20.3957 16.7354 20.7398 16.7354 21.0986C16.7354 21.4575 16.878 21.8016 17.1317 22.0553C17.3854 22.309 17.7295 22.4516 18.0884 22.4516H19.4413C19.8001 22.4516 20.1442 22.309 20.398 22.0553C20.6517 21.8016 20.7942 21.4575 20.7942 21.0986C20.7942 20.7398 20.6517 20.3957 20.398 20.142C20.1442 19.8882 19.8001 19.7457 19.4413 19.7457Z" fill="#143360"/>
<path d="M26.206 25.1575H24.8531C24.4942 25.1575 24.1501 25.3 23.8964 25.5537C23.6427 25.8075 23.5001 26.1516 23.5001 26.5104C23.5001 26.8692 23.6427 27.2134 23.8964 27.4671C24.1501 27.7208 24.4942 27.8633 24.8531 27.8633H26.206C26.5648 27.8633 26.9089 27.7208 27.1627 27.4671C27.4164 27.2134 27.5589 26.8692 27.5589 26.5104C27.5589 26.1516 27.4164 25.8075 27.1627 25.5537C26.9089 25.3 26.5648 25.1575 26.206 25.1575Z" fill="#143360"/>
<path d="M19.4413 25.1575H18.0884C17.7295 25.1575 17.3854 25.3 17.1317 25.5537C16.878 25.8075 16.7354 26.1516 16.7354 26.5104C16.7354 26.8692 16.878 27.2134 17.1317 27.4671C17.3854 27.7208 17.7295 27.8633 18.0884 27.8633H19.4413C19.8001 27.8633 20.1442 27.7208 20.398 27.4671C20.6517 27.2134 20.7942 26.8692 20.7942 26.5104C20.7942 26.1516 20.6517 25.8075 20.398 25.5537C20.1442 25.3 19.8001 25.1575 19.4413 25.1575Z" fill="#143360"/>
<path d="M23.8964 22.0553C23.6427 21.8016 23.5001 21.4575 23.5001 21.0986C23.5001 20.7398 23.6427 20.3957 23.8964 20.142C24.1501 19.8882 24.4942 19.7457 24.8531 19.7457H26.206C26.5648 19.7457 26.9089 19.8882 27.1627 20.142C27.4164 20.3957 27.5589 20.7398 27.5589 21.0986C27.5589 21.4575 27.4164 21.8016 27.1627 22.0553C26.9089 22.309 26.5648 22.4516 26.206 22.4516H24.8531C24.4942 22.4516 24.1501 22.309 23.8964 22.0553Z" fill="#143360"/>
<path d="M19.4413 19.7457H18.0884C17.7295 19.7457 17.3854 19.8882 17.1317 20.142C16.878 20.3957 16.7354 20.7398 16.7354 21.0986C16.7354 21.4575 16.878 21.8016 17.1317 22.0553C17.3854 22.309 17.7295 22.4516 18.0884 22.4516H19.4413C19.8001 22.4516 20.1442 22.309 20.398 22.0553C20.6517 21.8016 20.7942 21.4575 20.7942 21.0986C20.7942 20.7398 20.6517 20.3957 20.398 20.142C20.1442 19.8882 19.8001 19.7457 19.4413 19.7457Z" fill="#143360"/>
<path d="M26.206 25.1575H24.8531C24.4942 25.1575 24.1501 25.3 23.8964 25.5537C23.6427 25.8075 23.5001 26.1516 23.5001 26.5104C23.5001 26.8692 23.6427 27.2134 23.8964 27.4671C24.1501 27.7208 24.4942 27.8633 24.8531 27.8633H26.206C26.5648 27.8633 26.9089 27.7208 27.1627 27.4671C27.4164 27.2134 27.5589 26.8692 27.5589 26.5104C27.5589 26.1516 27.4164 25.8075 27.1627 25.5537C26.9089 25.3 26.5648 25.1575 26.206 25.1575Z" fill="#143360"/>
<path d="M19.4413 25.1575H18.0884C17.7295 25.1575 17.3854 25.3 17.1317 25.5537C16.878 25.8075 16.7354 26.1516 16.7354 26.5104C16.7354 26.8692 16.878 27.2134 17.1317 27.4671C17.3854 27.7208 17.7295 27.8633 18.0884 27.8633H19.4413C19.8001 27.8633 20.1442 27.7208 20.398 27.4671C20.6517 27.2134 20.7942 26.8692 20.7942 26.5104C20.7942 26.1516 20.6517 25.8075 20.398 25.5537C20.1442 25.3 19.8001 25.1575 19.4413 25.1575Z" fill="#143360"/>
<path d="M20.8085 21.0986C20.8085 21.4575 20.6659 21.8016 20.4122 22.0553C20.1585 22.309 19.8144 22.4516 19.4555 22.4516H18.1026C17.7438 22.4516 17.3996 22.309 17.1459 22.0553C16.8922 21.8016 16.7497 21.4575 16.7497 21.0986C16.7497 20.7398 16.8922 20.3957 17.1459 20.142C17.3996 19.8882 17.7438 19.7457 18.1026 19.7457H19.4555C19.8144 19.7457 20.1585 19.8882 20.4122 20.142C20.6659 20.3957 20.8085 20.7398 20.8085 21.0986ZM26.2202 19.7457H24.8673C24.5085 19.7457 24.1644 19.8882 23.9106 20.142C23.6569 20.3957 23.5144 20.7398 23.5144 21.0986C23.5144 21.4575 23.6569 21.8016 23.9106 22.0553C24.1644 22.309 24.5085 22.4516 24.8673 22.4516H26.2202C26.5791 22.4516 26.9232 22.309 27.1769 22.0553C27.4306 21.8016 27.5732 21.4575 27.5732 21.0986C27.5732 20.7398 27.4306 20.3957 27.1769 20.142C26.9232 19.8882 26.5791 19.7457 26.2202 19.7457ZM19.4555 25.1575H18.1026C17.7438 25.1575 17.3996 25.3 17.1459 25.5537C16.8922 25.8075 16.7497 26.1516 16.7497 26.5104C16.7497 26.8692 16.8922 27.2134 17.1459 27.4671C17.3996 27.7208 17.7438 27.8633 18.1026 27.8633H19.4555C19.8144 27.8633 20.1585 27.7208 20.4122 27.4671C20.6659 27.2134 20.8085 26.8692 20.8085 26.5104C20.8085 26.1516 20.6659 25.8075 20.4122 25.5537C20.1585 25.3 19.8144 25.1575 19.4555 25.1575ZM26.2202 25.1575H24.8673C24.5085 25.1575 24.1644 25.3 23.9106 25.5537C23.6569 25.8075 23.5144 26.1516 23.5144 26.5104C23.5144 26.8692 23.6569 27.2134 23.9106 27.4671C24.1644 27.7208 24.5085 27.8633 24.8673 27.8633H26.2202C26.5791 27.8633 26.9232 27.7208 27.1769 27.4671C27.4306 27.2134 27.5732 26.8692 27.5732 26.5104C27.5732 26.1516 27.4306 25.8075 27.1769 25.5537C26.9232 25.3 26.5791 25.1575 26.2202 25.1575ZM19.4555 8.92218H18.1026C17.7438 8.92218 17.3996 9.06472 17.1459 9.31844C16.8922 9.57217 16.7497 9.9163 16.7497 10.2751C16.7497 10.6339 16.8922 10.9781 17.1459 11.2318C17.3996 11.4855 17.7438 11.6281 18.1026 11.6281H19.4555C19.8144 11.6281 20.1585 11.4855 20.4122 11.2318C20.6659 10.9781 20.8085 10.6339 20.8085 10.2751C20.8085 9.9163 20.6659 9.57217 20.4122 9.31844C20.1585 9.06472 19.8144 8.92218 19.4555 8.92218ZM26.2202 8.92218H24.8673C24.5085 8.92218 24.1644 9.06472 23.9106 9.31844C23.6569 9.57217 23.5144 9.9163 23.5144 10.2751C23.5144 10.6339 23.6569 10.9781 23.9106 11.2318C24.1644 11.4855 24.5085 11.6281 24.8673 11.6281H26.2202C26.5791 11.6281 26.9232 11.4855 27.1769 11.2318C27.4306 10.9781 27.5732 10.6339 27.5732 10.2751C27.5732 9.9163 27.4306 9.57217 27.1769 9.31844C26.9232 9.06472 26.5791 8.92218 26.2202 8.92218ZM19.4555 14.3339H18.1026C17.7438 14.3339 17.3996 14.4765 17.1459 14.7302C16.8922 14.9839 16.7497 15.3281 16.7497 15.6869C16.7497 16.0457 16.8922 16.3898 17.1459 16.6436C17.3996 16.8973 17.7438 17.0398 18.1026 17.0398H19.4555C19.8144 17.0398 20.1585 16.8973 20.4122 16.6436C20.6659 16.3898 20.8085 16.0457 20.8085 15.6869C20.8085 15.3281 20.6659 14.9839 20.4122 14.7302C20.1585 14.4765 19.8144 14.3339 19.4555 14.3339ZM26.2202 14.3339H24.8673C24.5085 14.3339 24.1644 14.4765 23.9106 14.7302C23.6569 14.9839 23.5144 15.3281 23.5144 15.6869C23.5144 16.0457 23.6569 16.3898 23.9106 16.6436C24.1644 16.8973 24.5085 17.0398 24.8673 17.0398H26.2202C26.5791 17.0398 26.9232 16.8973 27.1769 16.6436C27.4306 16.3898 27.5732 16.0457 27.5732 15.6869C27.5732 15.3281 27.4306 14.9839 27.1769 14.7302C26.9232 14.4765 26.5791 14.3339 26.2202 14.3339ZM43.8085 15.6869V27.8633C43.8063 29.6568 43.0929 31.3762 41.8248 32.6443C40.5566 33.9125 38.8372 34.6259 37.0438 34.6281H18.1026C16.3091 34.6259 14.5898 33.9125 13.3216 32.6443C12.0534 31.3762 11.34 29.6568 11.3379 27.8633V8.92218C11.34 7.12873 12.0534 5.40934 13.3216 4.14118C14.5898 2.87302 16.3091 2.15962 18.1026 2.15747H26.2202C28.0137 2.15962 29.7331 2.87302 31.0012 4.14118C32.2694 5.40934 32.9828 7.12873 32.9849 8.92218H37.0438C38.8372 8.92433 40.5566 9.63772 41.8248 10.9059C43.0929 12.174 43.8063 13.8934 43.8085 15.6869ZM18.1026 31.9222H30.2791V8.92218C30.2791 7.84571 29.8514 6.81333 29.0903 6.05216C28.3291 5.29098 27.2967 4.86335 26.2202 4.86335H18.1026C17.0261 4.86335 15.9937 5.29098 15.2326 6.05216C14.4714 6.81333 14.0438 7.84571 14.0438 8.92218V27.8633C14.0438 28.9398 14.4714 29.9722 15.2326 30.7334C15.9937 31.4945 17.0261 31.9222 18.1026 31.9222ZM41.1026 15.6869C41.1026 14.6104 40.675 13.578 39.9138 12.8169C39.1526 12.0557 38.1202 11.6281 37.0438 11.6281H32.9849V31.9222H37.0438C38.1202 31.9222 39.1526 31.4945 39.9138 30.7334C40.675 29.9722 41.1026 28.9398 41.1026 27.8633V15.6869ZM37.0438 19.7457C36.7762 19.7457 36.5146 19.8251 36.2921 19.9737C36.0696 20.1224 35.8962 20.3337 35.7938 20.5809C35.6914 20.8281 35.6646 21.1001 35.7168 21.3626C35.769 21.625 35.8979 21.8661 36.0871 22.0553C36.2763 22.2445 36.5174 22.3734 36.7798 22.4256C37.0423 22.4778 37.3143 22.451 37.5615 22.3486C37.8087 22.2462 38.02 22.0728 38.1687 21.8503C38.3174 21.6278 38.3967 21.3662 38.3967 21.0986C38.3967 20.7398 38.2542 20.3957 38.0004 20.142C37.7467 19.8882 37.4026 19.7457 37.0438 19.7457ZM37.0438 25.1575C36.7762 25.1575 36.5146 25.2368 36.2921 25.3855C36.0696 25.5341 35.8962 25.7454 35.7938 25.9927C35.6914 26.2399 35.6646 26.5119 35.7168 26.7744C35.769 27.0368 35.8979 27.2779 36.0871 27.4671C36.2763 27.6563 36.5174 27.7852 36.7798 27.8374C37.0423 27.8896 37.3143 27.8628 37.5615 27.7604C37.8087 27.658 38.02 27.4846 38.1687 27.2621C38.3174 27.0396 38.3967 26.778 38.3967 26.5104C38.3967 26.1516 38.2542 25.8075 38.0004 25.5537C37.7467 25.3 37.4026 25.1575 37.0438 25.1575ZM37.0438 14.3339C36.7762 14.3339 36.5146 14.4133 36.2921 14.562C36.0696 14.7106 35.8962 14.9219 35.7938 15.1691C35.6914 15.4164 35.6646 15.6884 35.7168 15.9508C35.769 16.2133 35.8979 16.4543 36.0871 16.6436C36.2763 16.8328 36.5174 16.9616 36.7798 17.0138C37.0423 17.066 37.3143 17.0392 37.5615 16.9368C37.8087 16.8344 38.02 16.661 38.1687 16.4385C38.3174 16.216 38.3967 15.9545 38.3967 15.6869C38.3967 15.3281 38.2542 14.9839 38.0004 14.7302C37.7467 14.4765 37.4026 14.3339 37.0438 14.3339Z" fill="#143360"/>
<path d="M20.4122 22.0553C20.6659 21.8016 20.8085 21.4575 20.8085 21.0986C20.8085 20.7398 20.6659 20.3957 20.4122 20.142C20.1585 19.8882 19.8144 19.7457 19.4555 19.7457H18.1026C17.7438 19.7457 17.3996 19.8882 17.1459 20.142C16.8922 20.3957 16.7497 20.7398 16.7497 21.0986C16.7497 21.4575 16.8922 21.8016 17.1459 22.0553C17.3996 22.309 17.7438 22.4516 18.1026 22.4516H19.4555C19.8144 22.4516 20.1585 22.309 20.4122 22.0553Z" fill="#143360"/>
<path d="M24.8673 19.7457H26.2202C26.5791 19.7457 26.9232 19.8882 27.1769 20.142C27.4306 20.3957 27.5732 20.7398 27.5732 21.0986C27.5732 21.4575 27.4306 21.8016 27.1769 22.0553C26.9232 22.309 26.5791 22.4516 26.2202 22.4516H24.8673C24.5085 22.4516 24.1644 22.309 23.9106 22.0553C23.6569 21.8016 23.5144 21.4575 23.5144 21.0986C23.5144 20.7398 23.6569 20.3957 23.9106 20.142C24.1644 19.8882 24.5085 19.7457 24.8673 19.7457Z" fill="#143360"/>
<path d="M18.1026 25.1575H19.4555C19.8144 25.1575 20.1585 25.3 20.4122 25.5537C20.6659 25.8075 20.8085 26.1516 20.8085 26.5104C20.8085 26.8692 20.6659 27.2134 20.4122 27.4671C20.1585 27.7208 19.8144 27.8633 19.4555 27.8633H18.1026C17.7438 27.8633 17.3996 27.7208 17.1459 27.4671C16.8922 27.2134 16.7497 26.8692 16.7497 26.5104C16.7497 26.1516 16.8922 25.8075 17.1459 25.5537C17.3996 25.3 17.7438 25.1575 18.1026 25.1575Z" fill="#143360"/>
<path d="M24.8673 25.1575H26.2202C26.5791 25.1575 26.9232 25.3 27.1769 25.5537C27.4306 25.8075 27.5732 26.1516 27.5732 26.5104C27.5732 26.8692 27.4306 27.2134 27.1769 27.4671C26.9232 27.7208 26.5791 27.8633 26.2202 27.8633H24.8673C24.5085 27.8633 24.1644 27.7208 23.9106 27.4671C23.6569 27.2134 23.5144 26.8692 23.5144 26.5104C23.5144 26.1516 23.6569 25.8075 23.9106 25.5537C24.1644 25.3 24.5085 25.1575 24.8673 25.1575Z" fill="#143360"/>
<path d="M20.4122 22.0553C20.6659 21.8016 20.8085 21.4575 20.8085 21.0986C20.8085 20.7398 20.6659 20.3957 20.4122 20.142C20.1585 19.8882 19.8144 19.7457 19.4555 19.7457H18.1026C17.7438 19.7457 17.3996 19.8882 17.1459 20.142C16.8922 20.3957 16.7497 20.7398 16.7497 21.0986C16.7497 21.4575 16.8922 21.8016 17.1459 22.0553C17.3996 22.309 17.7438 22.4516 18.1026 22.4516H19.4555C19.8144 22.4516 20.1585 22.309 20.4122 22.0553Z" fill="#143360"/>
<path d="M24.8673 19.7457H26.2202C26.5791 19.7457 26.9232 19.8882 27.1769 20.142C27.4306 20.3957 27.5732 20.7398 27.5732 21.0986C27.5732 21.4575 27.4306 21.8016 27.1769 22.0553C26.9232 22.309 26.5791 22.4516 26.2202 22.4516H24.8673C24.5085 22.4516 24.1644 22.309 23.9106 22.0553C23.6569 21.8016 23.5144 21.4575 23.5144 21.0986C23.5144 20.7398 23.6569 20.3957 23.9106 20.142C24.1644 19.8882 24.5085 19.7457 24.8673 19.7457Z" fill="#143360"/>
<path d="M18.1026 25.1575H19.4555C19.8144 25.1575 20.1585 25.3 20.4122 25.5537C20.6659 25.8075 20.8085 26.1516 20.8085 26.5104C20.8085 26.8692 20.6659 27.2134 20.4122 27.4671C20.1585 27.7208 19.8144 27.8633 19.4555 27.8633H18.1026C17.7438 27.8633 17.3996 27.7208 17.1459 27.4671C16.8922 27.2134 16.7497 26.8692 16.7497 26.5104C16.7497 26.1516 16.8922 25.8075 17.1459 25.5537C17.3996 25.3 17.7438 25.1575 18.1026 25.1575Z" fill="#143360"/>
<path d="M24.8673 25.1575H26.2202C26.5791 25.1575 26.9232 25.3 27.1769 25.5537C27.4306 25.8075 27.5732 26.1516 27.5732 26.5104C27.5732 26.8692 27.4306 27.2134 27.1769 27.4671C26.9232 27.7208 26.5791 27.8633 26.2202 27.8633H24.8673C24.5085 27.8633 24.1644 27.7208 23.9106 27.4671C23.6569 27.2134 23.5144 26.8692 23.5144 26.5104C23.5144 26.1516 23.6569 25.8075 23.9106 25.5537C24.1644 25.3 24.5085 25.1575 24.8673 25.1575Z" fill="#143360"/>
</svg>
