<svg width="127" height="126" viewBox="0 0 127 126" fill="none" xmlns="http://www.w3.org/2000/svg">
<g clip-path="url(#clip0)">
<path d="M63.75 126C98.5439 126 126.75 97.7939 126.75 63C126.75 28.2061 98.5439 0 63.75 0C28.9561 0 0.75 28.2061 0.75 63C0.75 97.7939 28.9561 126 63.75 126Z" fill="#EB5757"/>
<g clip-path="url(#clip1)">
<path fill-rule="evenodd" clip-rule="evenodd" d="M62.8568 65.4531C56.1778 65.4531 51.1246 67.0452 45.7185 70.0812C43.8709 71.1189 41.3672 73.4472 39.8881 75.1449C38.735 76.4683 35.7959 79.7096 35.7507 81.8797C35.694 84.6044 38.9709 85.6107 40.4525 84.5634C40.6846 84.3992 40.9009 84.1804 41.1509 83.9194L41.8087 83.248C41.9666 83.0436 41.9506 83.0523 42.1434 82.7885L42.762 81.8456C43.1718 81.1856 43.4261 81.0467 43.838 80.4678C44.6951 79.263 47.0085 76.9444 48.3073 76.0955C50.7923 74.4714 52.7704 73.4357 55.8203 72.7298C57.3691 72.3714 58.9203 72.1119 60.488 72.0048C62.6147 71.8593 64.615 71.8545 66.7324 72.0538C70.2765 72.3874 73.7593 73.3351 76.7806 75.1873C76.8029 75.2011 76.8301 75.2184 76.8524 75.2323C76.8818 75.2506 76.9658 75.3044 76.9946 75.3232L77.5689 75.7214C78.6017 76.4144 78.8136 76.5007 79.8606 77.4526C80.8306 78.3344 81.7183 79.1869 82.5821 80.2434C84.4313 82.5049 85.7381 85.819 88.6245 84.8152C89.4533 84.5269 90.5037 83.6825 90.6775 82.7258C90.8147 81.9706 90.7691 80.9342 90.4343 80.2873L88.8546 77.8648C88.4503 77.2653 86.9519 75.3594 86.3856 74.8446C86.0732 74.5606 85.9037 74.3165 85.686 74.0778C84.8593 73.1713 83.0257 71.5655 82.0484 70.8875C81.7274 70.6648 82.0935 70.8943 81.6754 70.6097C76.5985 67.1536 70.1689 65.4531 62.8568 65.4531Z" fill="white"/>
<path fill-rule="evenodd" clip-rule="evenodd" d="M78.4911 42.1031C75.1507 42.6167 72.5949 45.7645 73.0778 49.3632C73.3002 51.0206 74.3684 52.5579 75.4584 53.4147C77.039 54.6572 79.544 55.1356 81.8474 54.3846C81.877 54.3749 81.9067 54.3655 81.9358 54.355C83.2347 53.8877 84.6835 52.4935 85.2704 51.4125C86.1465 49.7985 86.1192 46.6756 85.0067 45.0044C83.7334 43.0919 81.0685 41.7068 78.4911 42.1031Z" fill="white"/>
<path fill-rule="evenodd" clip-rule="evenodd" d="M46.0883 42.0846C40.1473 43.1826 38.6396 50.3328 43.3725 53.6547C44.8284 54.6764 45.9865 54.8255 47.9884 54.6554C49.0061 54.569 50.2912 54.1002 50.967 53.4952L51.2342 53.2129C52.9525 51.4947 53.668 50.6377 53.3714 47.3447C53.2931 46.4757 53.0476 45.7728 52.5535 45.0395C51.3346 43.2309 48.6746 41.6065 46.0883 42.0846Z" fill="white"/>
</g>
</g>
<defs>
<clipPath id="clip0">
<rect width="126" height="126" fill="white" transform="translate(0.75)"/>
</clipPath>
<clipPath id="clip1">
<rect width="55" height="43" fill="white" transform="translate(35.75 42)"/>
</clipPath>
</defs>
</svg>
