<svg width="24" height="24" viewBox="0 0 24 24" fill="none" xmlns="http://www.w3.org/2000/svg">
<mask id="path-1-inside-1" fill="white">
<path d="M18.841 1H5.15905C2.87135 1 1 2.87135 1 5.15905V18.841C1 21.1286 2.87135 23 5.15905 23H18.841C21.1286 23 23 21.1286 23 18.841V5.15905C23 2.87135 21.1286 1 18.841 1Z"/>
</mask>
<path d="M5.15905 3H18.841V-1H5.15905V3ZM18.841 3C20.0241 3 21 3.97592 21 5.15905H25C25 1.76678 22.2332 -1 18.841 -1V3ZM21 5.15905V18.841H25V5.15905H21ZM21 18.841C21 20.0241 20.0241 21 18.841 21V25C22.2332 25 25 22.2332 25 18.841H21ZM18.841 21H5.15905V25H18.841V21ZM5.15905 21C3.97592 21 3 20.0241 3 18.841H-1C-1 22.2332 1.76678 25 5.15905 25V21ZM3 18.841V5.15905H-1V18.841H3ZM3 5.15905C3 3.97592 3.97592 3 5.15905 3V-1C1.76678 -1 -1 1.76678 -1 5.15905H3Z" fill="white" mask="url(#path-1-inside-1)"/>
<path d="M17.7645 12H6.23438M11.9994 6.23492V17.765V6.23492Z" stroke="white" stroke-width="1.5" stroke-linecap="round" stroke-linejoin="round"/>
</svg>
