<svg width="14" height="14" viewBox="0 0 14 14" fill="none" xmlns="http://www.w3.org/2000/svg">
<path d="M2.64433 0.233252H2.54433V0.240439C1.92189 0.266328 1.3576 0.532653 0.942758 0.947337C0.505806 1.38412 0.233496 1.98666 0.233496 2.64832V11.3566C0.233496 12.0183 0.505806 12.6208 0.942758 13.0576C1.37971 13.4944 1.98246 13.7666 2.64433 13.7666H11.356C12.0179 13.7666 12.6206 13.4944 13.0576 13.0576C13.4945 12.6208 13.7668 12.0183 13.7668 11.3566V9.86436V4.28368V2.6432C13.7668 1.98155 13.4945 1.37901 13.0576 0.942226C12.6206 0.505442 12.0179 0.233252 11.356 0.233252H2.64433ZM1.62097 12.3642L1.62031 12.3636C1.35775 12.1059 1.19525 11.743 1.19525 11.3464V2.63809C1.19525 2.24201 1.3574 1.88374 1.62096 1.62028C1.88426 1.35708 2.24771 1.19472 2.64433 1.19472H11.356C11.7575 1.19472 12.1159 1.35695 12.3794 1.62028C12.6427 1.88348 12.8051 2.24677 12.8051 2.6432V4.18368H8.36059L8.35037 4.17346H8.30896C7.97511 4.17346 7.66866 4.30706 7.44583 4.52981L7.44494 4.53071C7.22882 4.75228 7.08932 5.05789 7.08932 5.39266V8.72983C7.08932 9.06359 7.22299 9.36993 7.44583 9.59268L7.44673 9.59357C7.66838 9.8096 7.97409 9.94903 8.30896 9.94903H12.7948V11.3413C12.7948 11.7427 12.6326 12.1009 12.3691 12.3642L12.3685 12.3649C12.1107 12.6273 11.7477 12.7898 11.3509 12.7898H2.63922C2.24295 12.7898 1.88452 12.6277 1.62097 12.3642ZM8.13937 5.22319L8.13942 5.22325L8.14214 5.22031C8.18414 5.17482 8.24933 5.14515 8.31918 5.14515H12.8051V8.99779H8.31918C8.25155 8.99779 8.1893 8.96966 8.13937 8.91974L8.13942 8.91968L8.13648 8.91697C8.09098 8.87498 8.06131 8.80984 8.06131 8.74005V5.40288C8.06131 5.33531 8.08943 5.27311 8.13937 5.22319ZM10.5 7.06891C10.5 6.60525 10.1233 6.22278 9.65354 6.22278C9.18979 6.22278 8.80712 6.59925 8.80712 7.06891C8.80712 7.53257 9.18379 7.91505 9.65354 7.91505C10.1173 7.91505 10.5 7.53857 10.5 7.06891Z" fill="#D7DEE9" stroke="#D7DEE9" stroke-width="0.2"/>
</svg>
