<svg width="31" height="31" viewBox="0 0 31 31" fill="none" xmlns="http://www.w3.org/2000/svg">
<rect width="31" height="31" rx="15.5" fill="#F7F8FB"/>
<path fill-rule="evenodd" clip-rule="evenodd" d="M16 6.0625C11.064 6.0625 7.0625 10.064 7.0625 15C7.0625 19.9361 11.064 23.9375 16 23.9375C20.9361 23.9375 24.9375 19.9361 24.9375 15C24.9375 10.064 20.9361 6.0625 16 6.0625ZM5 15C5 8.92486 9.92486 4 16 4C22.0752 4 27 8.92486 27 15C27 21.0752 22.0752 26 16 26C9.92486 26 5 21.0752 5 15ZM17.375 19.125C17.375 19.8844 16.7594 20.5 16 20.5C15.2406 20.5 14.625 19.8844 14.625 19.125C14.625 18.3656 15.2406 17.75 16 17.75C16.7594 17.75 17.375 18.3656 17.375 19.125ZM14.5161 12.3674C14.6268 12.146 14.7767 11.956 14.9822 11.819C15.1812 11.6863 15.493 11.5625 16 11.5625C16.3847 11.5625 16.7603 11.6815 17.0141 11.8719C17.2403 12.0416 17.375 12.2639 17.375 12.5938C17.375 12.8366 17.3189 12.9565 17.2689 13.0315C17.2065 13.125 17.099 13.2285 16.8889 13.3685C16.7838 13.4386 16.6708 13.5066 16.5329 13.5894L16.5244 13.5945L16.5244 13.5945C16.3956 13.6718 16.2434 13.7631 16.0939 13.8627C15.7884 14.0665 15.4233 14.3498 15.1419 14.7719C14.826 15.2458 14.9541 15.8861 15.428 16.202C15.9019 16.5179 16.5422 16.3898 16.8581 15.9159C16.9205 15.8223 17.028 15.7188 17.2381 15.5788C17.3431 15.5088 17.4561 15.4407 17.5941 15.3579L17.6026 15.3528L17.6027 15.3528C17.7315 15.2755 17.8836 15.1842 18.033 15.0846C18.3385 14.8809 18.7036 14.5976 18.985 14.1756C19.2788 13.7349 19.4375 13.2103 19.4375 12.5938C19.4375 11.5486 18.9419 10.7397 18.2516 10.2219C17.5887 9.72473 16.7612 9.5 16 9.5C15.132 9.5 14.4125 9.71994 13.8381 10.1029C13.2702 10.4815 12.9044 10.979 12.6714 11.4451C12.4167 11.9545 12.6231 12.5739 13.1326 12.8286C13.642 13.0833 14.2614 12.8768 14.5161 12.3674Z" fill="#C4CEDD"/>
</svg>
