<svg width="20" height="20" viewBox="0 0 20 20" fill="none" xmlns="http://www.w3.org/2000/svg">
<path fill-rule="evenodd" clip-rule="evenodd" d="M3.77884 0H16.2212C18.301 0 20 1.69901 20 3.77884V16.2212C20 18.301 18.301 20 16.2212 20H3.77884C1.69901 20 0 18.301 0 16.2212V3.77884C0 1.69901 1.69901 0 3.77884 0ZM9.93043 9.37386C11.7027 9.37386 12.6034 7.21347 11.3438 5.95386C10.0915 4.70157 7.92384 5.59502 7.92384 7.36726C7.92384 8.47309 8.81728 9.36653 9.92311 9.36653L9.93043 9.37386ZM9.93043 11.3731C7.71878 11.3731 5.92457 9.57891 5.92457 7.36726C5.92457 5.15562 7.71878 3.36141 9.93043 3.36141C12.1421 3.36141 13.9363 5.15562 13.9363 7.36726C13.9363 9.57891 12.1421 11.3731 9.93043 11.3731ZM2.07982 14.7638C3.05383 14.2072 4.07909 13.7605 5.1483 13.4237C6.69352 12.933 8.31197 12.6767 9.93775 12.6767C11.6514 12.6767 13.3504 12.955 14.9616 13.4969C15.9941 13.8411 16.9901 14.2951 17.9275 14.8444V3.77884C17.9275 2.84877 17.1586 2.07982 16.2285 2.07982H3.78616C2.8561 2.07982 2.08715 2.84877 2.08715 3.77884V14.7638H2.07982ZM17.7371 16.9901C16.6825 16.2724 15.5401 15.7085 14.3464 15.3131C12.9403 14.8444 11.4464 14.5954 9.93043 14.5954C8.48773 14.5954 7.06701 14.8151 5.71952 15.2472C4.49652 15.6353 3.31747 16.1992 2.22629 16.9242C2.49725 17.5101 3.09044 17.9275 3.77884 17.9275H16.2212C16.8803 17.9275 17.4515 17.5467 17.7371 16.9974V16.9901Z" fill="#143360"/>
</svg>
