<svg width="18" height="19" viewBox="0 0 18 19" fill="none" xmlns="http://www.w3.org/2000/svg">
<path d="M4.875 6.89246C4.875 5.65496 5.8875 4.64246 7.125 4.64246H10.875C11.855 4.64246 12.6939 5.27744 13.0006 6.15629C13.1371 6.54737 13.4608 6.89246 13.875 6.89246C14.2892 6.89246 14.6328 6.55324 14.5501 6.14736C14.2021 4.43859 12.6826 3.14246 10.875 3.14246H7.125C5.0625 3.14246 3.375 4.82996 3.375 6.89246V9.31865C3.375 9.73287 3.71079 10.0687 4.125 10.0687C4.53921 10.0687 4.875 9.73287 4.875 9.31865V6.89246Z" fill="white"/>
<path d="M13.1251 11.8575C13.1251 13.095 12.1126 14.1075 10.8751 14.1075H7.12512C6.14512 14.1075 5.30622 13.4725 4.99954 12.5937C4.86307 12.2026 4.53934 11.8575 4.12512 11.8575C3.71091 11.8575 3.36732 12.1967 3.44998 12.6026C3.79799 14.3114 5.31754 15.6075 7.12512 15.6075H10.8751C12.9376 15.6075 14.6251 13.92 14.6251 11.8575V9.02329H13.1251V11.8575Z" fill="white"/>
<path d="M4.3805 10.649C4.22484 10.8022 3.97516 10.8022 3.81951 10.649L1.92158 8.78221C1.66639 8.5312 1.84412 8.09705 2.20208 8.09705H5.99793C6.35588 8.09705 6.53362 8.5312 6.27843 8.78221L4.3805 10.649Z" fill="white"/>
<path d="M14.1305 7.75842C13.9749 7.60531 13.7252 7.60531 13.5695 7.75842L11.6716 9.62526C11.4164 9.87627 11.5942 10.3104 11.9521 10.3104H15.748C16.1059 10.3104 16.2837 9.87627 16.0285 9.62526L14.1305 7.75842Z" fill="white"/>
</svg>
