<svg width="16" height="13" viewBox="0 0 16 13" fill="none" xmlns="http://www.w3.org/2000/svg">
<path d="M3.875 3.89233C3.875 2.65483 4.8875 1.64233 6.125 1.64233H9.875C10.855 1.64233 11.6939 2.27731 12.0006 3.15616C12.1371 3.54725 12.4608 3.89233 12.875 3.89233C13.2892 3.89233 13.6328 3.55312 13.5501 3.14724C13.2021 1.43847 11.6826 0.142334 9.875 0.142334H6.125C4.0625 0.142334 2.375 1.82983 2.375 3.89233V6.31853C2.375 6.73274 2.71079 7.06853 3.125 7.06853C3.53921 7.06853 3.875 6.73274 3.875 6.31853V3.89233Z" fill="#143360"/>
<path d="M12.125 8.85765C12.125 10.0952 11.1125 11.1077 9.875 11.1077H6.125C5.145 11.1077 4.3061 10.4727 3.99942 9.59382C3.86295 9.20274 3.53921 8.85765 3.125 8.85765C2.71079 8.85765 2.3672 9.19687 2.44986 9.60275C2.79787 11.3115 4.31742 12.6076 6.125 12.6076H9.875C11.9375 12.6076 13.625 10.9202 13.625 8.85765V6.02341H12.125V8.85765Z" fill="#143360"/>
<path d="M3.38059 7.64917C3.22493 7.80228 2.97526 7.80228 2.8196 7.64917L0.921674 5.78234C0.666479 5.53132 0.844214 5.09717 1.20217 5.09717H4.99802C5.35598 5.09717 5.53371 5.53132 5.27852 5.78234L3.38059 7.64917Z" fill="#143360"/>
<path d="M13.1306 4.7583C12.9749 4.60519 12.7253 4.60519 12.5696 4.7583L10.6717 6.62513C10.4165 6.87615 10.5942 7.3103 10.9522 7.3103H14.748C15.106 7.3103 15.2837 6.87615 15.0285 6.62513L13.1306 4.7583Z" fill="#143360"/>
</svg>
