<svg width="14" height="14" viewBox="0 0 14 14" fill="none" xmlns="http://www.w3.org/2000/svg">
<path d="M2.53558 0.235352C1.91873 0.261288 1.35428 0.525859 0.940192 0.939947C0.503918 1.37622 0.233496 1.97403 0.233496 2.63533V11.3645C0.233496 12.0202 0.503824 12.6235 0.940192 13.0599C1.37646 13.4962 1.97427 13.7666 2.63558 13.7666H11.3648C12.0204 13.7666 12.6238 13.4963 13.0601 13.0599C13.4964 12.6236 13.7668 12.0258 13.7668 11.3645V2.63533C13.7668 1.97966 13.4965 1.37631 13.0601 0.939947C12.6239 0.503674 12.0261 0.233252 11.3648 0.233252H2.63558H2.53558V0.235352ZM12.8288 2.63533V7.89951H7.47191V1.17675H11.3703C11.7721 1.17675 12.138 1.34156 12.401 1.60457C12.664 1.86758 12.8288 2.23351 12.8288 2.63533ZM7.47191 12.8286V8.84851H12.8288V11.37C12.8288 11.7718 12.664 12.1378 12.401 12.4008C12.138 12.6638 11.7721 12.8286 11.3703 12.8286H7.47191ZM6.52842 1.18225V5.53134H1.1825V2.64084C1.1825 2.23902 1.34731 1.87309 1.61032 1.61008C1.87333 1.34706 2.23926 1.18225 2.64108 1.18225H6.52842ZM1.1825 11.37V6.48034H6.52842V12.8286H2.64108C2.23926 12.8286 1.87333 12.6638 1.61032 12.4008C1.34731 12.1378 1.1825 11.7718 1.1825 11.37Z" fill="#D7DEE9" stroke="#D7DEE9" stroke-width="0.2"/>
</svg>
