<svg width="18" height="19" viewBox="0 0 18 19" fill="none" xmlns="http://www.w3.org/2000/svg">
<g clip-path="url(#clip0)">
<path d="M16.3613 4.27094C16.2939 4.19397 16.2114 4.13173 16.1188 4.08813C16.0263 4.04453 15.9257 4.02051 15.8234 4.01755C14.2346 3.97602 12.2241 2.27709 10.8949 1.6104C10.0738 1.19986 9.53173 0.929169 9.12465 0.857862C9.042 0.845817 8.95801 0.84605 8.87542 0.858554C8.46834 0.929862 7.92627 1.20055 7.10588 1.61109C5.77665 2.27709 3.76619 3.97602 2.17734 4.01755C2.075 4.02066 1.97439 4.04475 1.88174 4.08834C1.78908 4.13192 1.70637 4.19407 1.63873 4.27094C1.49852 4.42957 1.42618 4.6369 1.43727 4.84832C1.77858 11.7873 4.26742 16.0817 8.6345 18.5775C8.74804 18.6419 8.87404 18.6751 8.99934 18.6751C9.12465 18.6751 9.25065 18.6419 9.36488 18.5775C13.732 16.0817 16.2201 11.7873 16.5621 4.84832C16.5738 4.63693 16.5017 4.42945 16.3613 4.27094ZM12.8887 7.00002L9.20358 12.4381C9.07134 12.6333 8.86365 12.7628 8.65804 12.7628C8.45173 12.7628 8.22258 12.6499 8.07788 12.5052L5.48034 9.90701C5.39554 9.82189 5.34792 9.70663 5.34792 9.58648C5.34792 9.46632 5.39554 9.35106 5.48034 9.26594L6.12211 8.62278C6.20741 8.53831 6.32261 8.49093 6.44265 8.49093C6.5627 8.49093 6.67789 8.53831 6.76319 8.62278L8.45242 10.312L11.3871 5.98025C11.455 5.88112 11.5594 5.81289 11.6774 5.79045C11.7955 5.76801 11.9176 5.79318 12.0171 5.86048L12.7683 6.37002C12.8675 6.43781 12.9359 6.54212 12.9585 6.66017C12.981 6.77821 12.956 6.90039 12.8887 7.00002Z" fill="#0784DF"/>
</g>
<defs>
<clipPath id="clip0">
<rect width="18" height="18" fill="white" transform="translate(0 0.790039)"/>
</clipPath>
</defs>
</svg>
