<svg width="36" height="35" viewBox="0 0 36 35" fill="none" xmlns="http://www.w3.org/2000/svg">
<path d="M18.2817 34.9972C8.74417 34.9972 0.985596 27.2386 0.985596 17.7011C0.985596 8.16628 8.74417 0.407715 18.2817 0.407715V2.26804C9.76924 2.26804 2.84591 9.19136 2.84591 17.7011C2.84591 26.2109 9.76924 33.1369 18.2817 33.1369V34.9972Z" fill="#333333"/>
<path d="M18.2815 34.9972V33.1369C26.7912 33.1369 33.7146 26.2136 33.7146 17.7011C33.7146 9.19136 26.7912 2.26804 18.2815 2.26804V0.407715C27.819 0.407715 35.5776 8.16628 35.5776 17.7011C35.5776 27.2386 27.819 34.9972 18.2815 34.9972Z" fill="#333333"/>
<path d="M27.4232 17.7035C27.4232 19.7022 25.8042 21.3211 23.8083 21.3211C21.8069 21.3211 20.188 19.7022 20.188 17.7035C20.188 15.7049 21.8042 14.0859 23.8083 14.0859C25.8069 14.0859 27.4232 15.7049 27.4232 17.7035Z" fill="#333333"/>
<path d="M16.3751 17.7035C16.3751 19.7022 14.7561 21.3211 12.7548 21.3211C10.7562 21.3211 9.13721 19.7022 9.13721 17.7035C9.13721 15.7049 10.7562 14.0859 12.7548 14.0859C14.7561 14.0859 16.3751 15.7049 16.3751 17.7035Z" fill="#333333"/>
</svg>
