<svg width="14" height="14" viewBox="0 0 14 14" fill="none" xmlns="http://www.w3.org/2000/svg">
<path d="M6.28059 13.7613C6.52754 13.7613 6.73216 13.5705 6.75427 13.329L6.76154 13.3218V13.2803C6.76154 13.0188 6.54745 12.8047 6.28588 12.8047H2.64567C2.24493 12.8047 1.88375 12.6416 1.62114 12.3789C1.35852 12.1163 1.1954 11.7552 1.1954 11.3544V2.64013C1.1954 2.23939 1.35852 1.87822 1.62114 1.6156C1.88375 1.35299 2.24492 1.18987 2.64567 1.18987H11.36C11.7607 1.18987 12.1219 1.35299 12.3845 1.6156C12.6471 1.87822 12.8102 2.23939 12.8102 2.64013V5.96817C12.8102 6.22975 13.0243 6.44383 13.2859 6.44383C13.5475 6.44383 13.7615 6.22975 13.7615 5.96817V2.64013C13.7615 1.97744 13.4908 1.37563 13.055 0.93979C12.6192 0.503946 12.0173 0.233252 11.3547 0.233252H2.64037C1.97769 0.233252 1.37588 0.503945 0.940034 0.93979C0.50419 1.37563 0.233496 1.97744 0.233496 2.64013V11.3544C0.233496 12.0171 0.50419 12.6189 0.940034 13.0548C1.37588 13.4906 1.97769 13.7613 2.64037 13.7613H6.28059Z" fill="#D7DEE9" stroke="#D7DEE9" stroke-width="0.2"/>
<path d="M8.93939 5C9.83952 5 10.7028 5.36875 11.3393 6.02513C11.9758 6.6815 12.3333 7.57174 12.3333 8.5C12.3333 9.42826 11.9758 10.3185 11.3393 10.9749C10.7028 11.6313 9.83952 12 8.93939 12C8.03926 12 7.176 11.6313 6.53952 10.9749C5.90303 10.3185 5.54545 9.42826 5.54545 8.5C5.54545 7.57174 5.90303 6.6815 6.53952 6.02513C7.176 5.36875 8.03926 5 8.93939 5ZM8.93939 5.875C8.2643 5.875 7.61685 6.15156 7.13949 6.64384C6.66212 7.13613 6.39394 7.80381 6.39394 8.5C6.39394 9.19619 6.66212 9.86387 7.13949 10.3562C7.61685 10.8484 8.2643 11.125 8.93939 11.125C9.61449 11.125 10.2619 10.8484 10.7393 10.3562C11.2167 9.86387 11.4848 9.19619 11.4848 8.5C11.4848 7.80381 11.2167 7.13613 10.7393 6.64384C10.2619 6.15156 9.61449 5.875 8.93939 5.875ZM8.51515 6.75H9.15152V8.40375L10.14 9.42312L9.6903 9.88687L8.51515 8.675V6.75ZM3.42424 11.125C3.31173 11.125 3.20382 11.0789 3.12426 10.9969C3.0447 10.9148 3 10.8035 3 10.6875C3 10.5715 3.0447 10.4602 3.12426 10.3781C3.20382 10.2961 3.31173 10.25 3.42424 10.25H5.04909C5.18061 10.5606 5.3503 10.8537 5.54545 11.125H3.42424ZM3.84848 8.9375C3.73597 8.9375 3.62806 8.89141 3.5485 8.80936C3.46894 8.72731 3.42424 8.61603 3.42424 8.5C3.42424 8.38397 3.46894 8.27269 3.5485 8.19064C3.62806 8.10859 3.73597 8.0625 3.84848 8.0625H4.71818L4.69697 8.5L4.71818 8.9375H3.84848ZM4.27273 6.75C4.16021 6.75 4.0523 6.70391 3.97274 6.62186C3.89318 6.53981 3.84848 6.42853 3.84848 6.3125C3.84848 6.19647 3.89318 6.08519 3.97274 6.00314C4.0523 5.92109 4.16021 5.875 4.27273 5.875H5.54545C5.3503 6.14625 5.18061 6.43937 5.04909 6.75H4.27273Z" fill="#D7DEE9"/>
</svg>
