<svg width="1423" height="404" viewBox="0 0 1423 404" fill="none" xmlns="http://www.w3.org/2000/svg">
<path d="M106.24 123.73L179.94 263.96H156.4L139.82 232.84H39.92L23.54 263.96H0L73.7 123.73H106.24ZM130.81 214.01L92.73 140.52H87.41L49.33 214.01H130.81Z" fill="white"/>
<path d="M228.66 263.96H207.78V123.73H228.66V263.96Z" fill="white"/>
<path d="M342.28 185.56C374.9 185.56 395.44 187.47 403.9 191.29C414.41 196.07 419.66 207.53 419.66 225.68C419.66 242.88 413.31 254.14 400.62 259.46C390.25 263.83 369.23 266.01 337.57 266.01C303.31 266.01 281.27 262.26 271.45 254.75C263.94 249.02 260.19 236.53 260.19 217.29H281.07C281.07 230.53 284 238.82 289.87 242.16C295.74 245.51 311.7 247.18 337.77 247.18C363.29 247.18 379.84 245.95 387.41 243.5C394.98 241.04 398.77 235.11 398.77 225.69C398.77 216.14 395.94 210.2 390.27 207.88C384.6 205.56 368.6 204.4 342.26 204.4C310.05 204.4 288.42 200.51 277.36 192.73C268.9 186.86 264.67 176.29 264.67 161C264.67 144.49 269.75 133.81 279.92 128.96C290.09 124.12 310.86 121.69 342.26 121.69C373.51 121.69 394.05 125.45 403.88 132.95C411.66 138.96 415.55 150.69 415.55 168.16H395.08C395.08 156.06 392.01 148.43 385.87 145.27C379.73 142.11 365.19 140.53 342.27 140.53C322.62 140.53 310.54 140.81 306.03 141.35C292.38 143 285.56 149.51 285.56 160.89C285.56 170.49 289.24 177 296.61 180.43C304 183.84 319.21 185.56 342.28 185.56Z" fill="white"/>
<path d="M448.73 123.73H595.11V142.56H532.47V263.96H511.59V142.56H448.74V123.73H448.73Z" fill="white"/>
<path d="M1042.29 122.52H1167.99C1179.86 122.52 1189.01 126.59 1195.42 134.72C1201.83 142.85 1205.04 153.68 1205.04 167.21C1205.04 178.82 1203.2 187.5 1199.51 193.24C1196.92 197.34 1192.75 200.62 1187.02 203.08C1192.07 205.13 1196.03 207.8 1198.89 211.08C1202.98 215.73 1205.03 221.47 1205.03 228.31V262.77H1184.15V228.24C1184.15 223.58 1181.93 219.71 1177.51 216.63C1173.08 213.55 1167.73 212 1161.47 212H1063.17V262.77H1042.29V122.52ZM1063.17 193.15H1159.43C1167.06 193.15 1172.64 191.85 1176.19 189.24C1181.5 185.27 1184.16 177.94 1184.16 167.25C1184.16 156.56 1181.57 149.3 1176.39 145.46C1172.71 142.72 1167.06 141.35 1159.43 141.35H1063.17V193.15Z" fill="white"/>
<path d="M1243.12 122.93H1264V181.89H1284.47L1374.95 122.93H1411.39L1307.8 190.9L1414.05 262.76H1378.63L1286.51 200.73H1263.99V262.76H1243.11V122.93H1243.12Z" fill="white"/>
<path d="M1042.25 338.85H1085.06V344.12H1047.7V367.57H1080.86V372.84H1047.7V397.14H1085.5V402.41H1042.24V338.85H1042.25Z" fill="white"/>
<path d="M1091.85 338.85H1098.29L1117.68 365.6L1137.07 338.85H1143.51L1120.9 370.02L1144.4 402.42H1137.97L1117.68 374.45L1097.48 402.42H1091.05L1114.47 370.02L1091.85 338.85Z" fill="white"/>
<path d="M1154.05 402.42V338.85H1180.15C1185.51 338.85 1189.98 340.67 1193.56 344.31C1197.14 347.95 1198.92 352.47 1198.92 357.87C1198.92 363.27 1197.13 367.79 1193.56 371.43C1189.98 375.07 1185.52 376.89 1180.15 376.89H1159.51V402.41H1154.05V402.42ZM1180.15 344.13H1159.51V371.63H1180.15C1183.9 371.63 1187.05 370.33 1189.58 367.72C1192.11 365.12 1193.38 361.83 1193.38 357.88C1193.38 353.99 1192.11 350.72 1189.58 348.08C1187.05 345.44 1183.9 344.13 1180.15 344.13Z" fill="white"/>
<path d="M1210.98 402.42V338.85H1237.88C1243.3 338.85 1247.8 340.67 1251.37 344.31C1254.95 347.95 1256.73 352.47 1256.73 357.87C1256.73 362.27 1255.51 366.13 1253.06 369.45C1250.62 372.78 1247.4 375.01 1243.41 376.14L1258.87 402.42H1252.79L1237.69 376.9H1216.42V402.42H1210.98ZM1237.88 344.13H1216.43V371.63H1237.88C1241.69 371.63 1244.86 370.33 1247.4 367.72C1249.93 365.12 1251.2 361.83 1251.2 357.88C1251.2 353.99 1249.93 350.72 1247.4 348.08C1244.87 345.44 1241.69 344.13 1237.88 344.13Z" fill="white"/>
<path d="M1269.61 338.85H1312.42V344.12H1275.06V367.57H1308.22V372.84H1275.06V397.14H1312.86V402.41H1269.6V338.85H1269.61Z" fill="white"/>
<path d="M1321.44 388.01L1326.8 386.41C1327.34 389.67 1329.15 392.38 1332.25 394.51C1335.35 396.64 1339.1 397.71 1343.51 397.71C1348.1 397.71 1351.92 396.53 1354.99 394.18C1358.06 391.83 1359.59 388.83 1359.59 385.19C1359.59 382.74 1358.78 380.67 1357.18 378.98C1355.57 377.28 1353.77 376.05 1351.77 375.26C1349.77 374.48 1347.2 373.71 1344.04 372.95C1341.48 372.26 1339.45 371.69 1337.96 371.25C1336.47 370.81 1334.64 370.11 1332.46 369.13C1330.28 368.16 1328.62 367.12 1327.46 366.02C1326.3 364.92 1325.27 363.46 1324.38 361.64C1323.49 359.82 1323.04 357.78 1323.04 355.52C1323.04 350.43 1324.92 346.26 1328.67 342.99C1332.42 339.73 1337.19 338.09 1342.97 338.09C1348.21 338.09 1352.71 339.42 1356.46 342.09C1360.21 344.76 1362.54 348.17 1363.43 352.31L1358.07 353.82C1357.53 350.87 1355.86 348.42 1353.07 346.47C1350.27 344.52 1346.93 343.55 1343.06 343.55C1338.89 343.55 1335.4 344.65 1332.6 346.85C1329.8 349.05 1328.4 351.84 1328.4 355.23C1328.4 357.05 1328.82 358.62 1329.65 359.94C1330.48 361.26 1331.8 362.39 1333.58 363.33C1335.37 364.27 1337.08 365.02 1338.72 365.59C1340.36 366.15 1342.58 366.78 1345.38 367.47C1348.18 368.16 1350.5 368.84 1352.35 369.5C1354.2 370.16 1356.21 371.13 1358.38 372.42C1360.55 373.71 1362.19 375.39 1363.3 377.46C1364.4 379.53 1364.95 381.98 1364.95 384.81C1364.95 390.21 1362.92 394.64 1358.87 398.09C1354.82 401.54 1349.66 403.27 1343.41 403.27C1337.75 403.27 1332.91 401.83 1328.89 398.94C1324.88 396.05 1322.39 392.41 1321.44 388.01Z" fill="white"/>
<path d="M1374.26 388.01L1379.62 386.41C1380.16 389.67 1381.97 392.38 1385.07 394.51C1388.17 396.64 1391.92 397.71 1396.33 397.71C1400.92 397.71 1404.74 396.53 1407.81 394.18C1410.88 391.83 1412.41 388.83 1412.41 385.19C1412.41 382.74 1411.6 380.67 1410 378.98C1408.39 377.28 1406.59 376.05 1404.59 375.26C1402.59 374.48 1400.02 373.71 1396.86 372.95C1394.3 372.26 1392.27 371.69 1390.78 371.25C1389.29 370.81 1387.46 370.11 1385.28 369.13C1383.1 368.16 1381.44 367.12 1380.28 366.02C1379.12 364.92 1378.09 363.46 1377.2 361.64C1376.31 359.82 1375.86 357.78 1375.86 355.52C1375.86 350.43 1377.74 346.26 1381.49 342.99C1385.24 339.73 1390.01 338.09 1395.79 338.09C1401.03 338.09 1405.53 339.42 1409.28 342.09C1413.03 344.76 1415.36 348.17 1416.25 352.31L1410.89 353.82C1410.35 350.87 1408.68 348.42 1405.89 346.47C1403.09 344.52 1399.75 343.55 1395.88 343.55C1391.71 343.55 1388.22 344.65 1385.42 346.85C1382.62 349.05 1381.22 351.84 1381.22 355.23C1381.22 357.05 1381.64 358.62 1382.47 359.94C1383.3 361.26 1384.62 362.39 1386.4 363.33C1388.19 364.27 1389.9 365.02 1391.54 365.59C1393.18 366.15 1395.4 366.78 1398.2 367.47C1401 368.16 1403.32 368.84 1405.17 369.5C1407.02 370.16 1409.03 371.13 1411.2 372.42C1413.37 373.71 1415.01 375.39 1416.12 377.46C1417.22 379.53 1417.77 381.98 1417.77 384.81C1417.77 390.21 1415.74 394.64 1411.69 398.09C1407.64 401.54 1402.48 403.27 1396.23 403.27C1390.57 403.27 1385.73 401.83 1381.71 398.94C1377.7 396.05 1375.21 392.41 1374.26 388.01Z" fill="white"/>
<path d="M822.8 316.68C895.641 316.68 954.69 257.631 954.69 184.79C954.69 111.949 895.641 52.8999 822.8 52.8999C749.959 52.8999 690.91 111.949 690.91 184.79C690.91 257.631 749.959 316.68 822.8 316.68Z" fill="url(#paint0_linear)"/>
<path d="M823.78 296.18L822.85 295.65C819.04 293.48 816.79 289.91 815.61 285.56C810.61 282.52 807.92 277.98 807.62 272.05C806.93 258.21 819.67 240.72 822.41 237.86C820.05 232.32 815.6 221.72 813.23 215.98L808.72 217.46L808.28 214.01L799.62 216L799.22 212.01L788.52 212.22L788.49 208.16C785.36 208.19 778.16 207.14 777.82 207.1L777.32 207.03L777.07 203.51L763.95 203.71L764.12 202.94C764.27 202.25 764.43 201.45 764.51 200.9C757.62 202.73 749.15 201.09 748.78 201.01L748.13 200.88L748.91 197.88C741.86 200.39 727.06 198.78 726.39 198.71L725.09 198.56L726.02 197.64C727.34 196.34 728.74 194.91 729.6 194C710.96 194.27 706.59 191.38 706.41 191.25L705.79 190.82L706.33 190.29C707.27 189.38 708.31 188.32 708.93 187.62C690.43 186.55 685.12 182.01 684.9 181.82L684.24 181.23L685.02 180.81C686.77 179.86 688.72 178.66 689.61 177.94C673.89 175.73 666.55 167.62 666.24 167.27L665.69 166.65L666.43 166.29C668.36 165.36 670.43 164.32 671.67 163.65C660.07 160.3 653.76 151.08 653.48 150.67L653.03 150L658.01 148.23C643.38 141.25 639.51 128.64 639.47 128.51L639.24 127.72L640.06 127.71C642.23 127.67 644.74 127.51 645.91 127.28C637.14 119.43 634.35 108.63 634.23 108.16L634.01 107.29L634.9 107.39C635.45 107.45 690.23 113.53 720.8 110.72C729.54 111.47 738.72 113.33 738.81 113.34C745.79 116.13 756.31 120.31 757.09 120.47C757.26 120.51 757.58 120.63 758.57 121.03C784.84 131.53 798.86 130.67 806 128.1C820.64 120.08 818.25 99.29 816.15 80.93C814.25 64.36 812.62 50.05 822.96 46.78L823.77 46.52V236.78L824.09 236.55L823.77 238.06V296.18H823.78ZM822.54 242.56C822.44 242.88 822.34 243.21 822.24 243.55C818.44 256.1 809.65 285.11 822.54 293.98V242.56ZM821.83 240.57C817.79 245.91 808.15 260.5 808.89 272.23C809.2 277.16 811.32 281.04 815.2 283.79C812.64 270.93 818.2 252.56 821.04 243.19C821.33 242.23 821.6 241.35 821.83 240.57ZM813.95 214.43L814.17 214.97C816.18 219.84 819.98 228.92 822.53 234.95V48.27C814.08 51.77 815.62 65.25 817.4 80.79C819.55 99.53 821.98 120.77 806.52 129.23C799.09 131.91 784.75 132.83 758.11 122.18C757.48 121.93 756.94 121.71 756.83 121.68C755.71 121.44 740.23 115.23 738.47 114.52C738.42 114.52 729.34 112.69 720.82 111.95C692.44 114.57 643.1 109.51 635.71 108.72C636.59 111.53 639.87 120.51 647.4 126.9L647.52 127L647.58 127.14C647.68 127.38 647.65 127.64 647.5 127.86C647.35 128.09 646.89 128.78 640.97 128.93C642.1 131.83 646.89 142.09 659.95 147.72L661.41 148.35L655.02 150.62C656.76 152.87 663.14 160.31 673.26 162.77H673.68L673.83 163.27C673.96 163.83 674 164 667.78 167.02C669.84 168.97 677.31 175.14 690.64 176.8L690.81 176.85C691.11 176.98 691.3 177.24 691.32 177.56C691.33 177.87 691.37 178.68 686.52 181.41C688.58 182.65 695.11 185.7 710.1 186.44L710.36 186.51L710.64 186.66L710.7 187.01C710.74 187.31 710.79 187.67 707.85 190.57C709.73 191.32 715.77 193.06 730.94 192.74L731.39 192.73L731.55 193.17C731.7 193.6 731.74 193.72 727.85 197.6C731.95 197.96 744.5 198.82 749.56 196.26L750.79 195.64L749.68 199.9C751.89 200.26 759.29 201.25 764.95 199.47L765.14 199.44H765.44L765.65 199.69C765.81 199.89 765.98 200.11 765.5 202.44L778.23 202.25L778.5 205.94C780.38 206.2 787.02 207.09 789.05 206.9L789.73 206.83L789.76 210.95L800.34 210.74L800.72 214.47L809.35 212.49L809.77 215.81L813.95 214.43Z" fill="white"/>
<path d="M647.03 128L646.95 126.75C647.37 126.72 689.26 123.93 720.16 116.07L720.31 116.05C720.54 116.05 721.49 115.73 722.4 115.43C725.92 114.25 732.48 112.05 738.3 113.23L738.05 114.45C732.55 113.33 726.21 115.46 722.8 116.61C721.48 117.05 720.82 117.27 720.4 117.3C689.4 125.18 647.46 127.98 647.03 128Z" fill="white"/>
<path d="M813 215.38C811.6 210.6 807.78 186.52 807.23 183.02C776.83 173.78 757.75 144.54 757.56 144.24C757.46 144.11 745.55 127.94 740.5 123.89C728.05 119.45 660.62 148.58 659.94 148.87L659.44 147.72C662.25 146.5 728.35 117.95 741.03 122.75L741.2 122.84C746.33 126.89 758.09 142.85 758.59 143.52C758.8 143.84 777.79 172.94 807.96 181.92L808.34 182.03L808.4 182.42C808.44 182.7 812.74 210.03 814.19 215.01L813 215.38Z" fill="white"/>
<path d="M673.53 163.92L672.83 162.89C675.19 161.29 730.85 123.85 747.33 129.36L746.94 130.54C731.03 125.21 674.1 163.53 673.53 163.92Z" fill="white"/>
<path d="M690.97 177.9L690.15 176.96C692.22 175.15 740.96 132.59 753.11 136.51L752.72 137.7C741.26 133.98 691.48 177.46 690.97 177.9Z" fill="white"/>
<path d="M710.54 187.45L709.58 186.65C711.04 184.91 745.36 144.24 758.5 144.24C758.59 144.24 758.67 144.24 758.76 144.24L758.71 145.49C758.63 145.49 758.56 145.49 758.48 145.49C745.94 145.49 710.89 187.03 710.54 187.45Z" fill="white"/>
<path d="M731.48 193.69L730.43 193.01C731.34 191.59 752.94 158.11 765.17 152.81L765.67 153.96C753.78 159.11 731.7 193.35 731.48 193.69Z" fill="white"/>
<path d="M750.4 197.09L749.29 196.52C749.98 195.17 766.42 163.52 775.16 162.78L775.26 164.02C768.57 164.58 755.04 188.08 750.4 197.09Z" fill="white"/>
<path d="M765.7 200.34L764.59 199.76C771.94 185.69 781.1 168.95 783.3 169.33L783.1 170.56C783.19 170.58 783.25 170.55 783.25 170.55C781.6 171.22 772.98 186.4 765.7 200.34Z" fill="white"/>
<path d="M778.23 203.12L777.09 202.6C780.77 194.52 789.55 175.65 791.52 175.01C791.73 174.94 791.96 174.96 792.15 175.06L791.54 176.15C791.72 176.25 791.9 176.21 791.96 176.18C790.64 176.99 783.9 190.67 778.23 203.12Z" fill="white"/>
<path d="M789.73 207.62L788.51 207.37C788.7 206.45 793.12 184.8 798.83 179.04L799.71 179.92C794.27 185.42 789.78 207.4 789.73 207.62Z" fill="white"/>
<path d="M809.628 197.516L808.221 213.123L809.466 213.235L810.873 197.628L809.628 197.516Z" fill="white"/>
<path d="M806.82 164.47C781.45 156.6 754.44 134.26 741.03 122.09C741.25 122.53 741.39 122.92 741.43 123.26L740.19 123.42C740.01 122.02 737 118.55 734.34 115.82C733.16 114.67 732.5 114.01 732.45 113.96L733.33 113.07C733.56 113.29 734.3 114 735.25 114.96C743.43 122.91 776.55 153.78 807.19 163.28L806.82 164.47Z" fill="white"/>
<path d="M807.73 147.03C777.02 144.56 732.99 114.34 732.55 114.04L733.26 113.01C733.7 113.31 777.45 143.34 807.83 145.79L807.73 147.03Z" fill="white"/>
<path d="M800.39 211.52L799.18 211.21C799.23 211.01 804.21 191.38 803.57 181.4L803.55 181.06L803.83 180.85C804.17 180.6 804.37 180.67 806.24 181.38C806.49 181.47 806.79 181.59 807.07 181.69C803.18 140.97 812.94 121.95 813.04 121.77L814.14 122.35C814.04 122.54 804.31 141.55 808.4 182.48L808.44 182.82L808.16 183.04C807.82 183.3 807.67 183.25 805.8 182.54C805.52 182.44 805.17 182.3 804.86 182.19C805.2 192.55 800.59 210.73 800.39 211.52Z" fill="white"/>
<path d="M820.86 48.1101L819.61 48.0301L822.54 0.0400391L823.78 0.0700074V47.38H822.54V20.5601L820.86 48.1101Z" fill="white"/>
<path d="M823.11 296.14V238.03L822.79 236.52L823.11 236.75V46.4902L823.92 46.7502C834.26 50.0202 832.62 64.3302 830.73 80.9002C828.63 99.2502 826.25 120.05 840.97 128.11C848.02 130.64 862.04 131.5 888.31 121C889.3 120.6 889.62 120.48 889.79 120.44C890.57 120.27 901.09 116.1 907.96 113.34C908.16 113.29 917.34 111.43 925.97 110.68C956.64 113.49 1011.43 107.41 1011.98 107.35L1012.87 107.25L1012.65 108.12C1012.53 108.59 1009.74 119.39 1000.97 127.24C1002.15 127.47 1004.65 127.63 1006.82 127.67L1007.64 127.68L1007.41 128.47C1007.37 128.6 1003.49 141.21 988.86 148.19L993.85 149.96L993.4 150.63C993.13 151.03 986.81 160.25 975.21 163.61C976.44 164.27 978.52 165.31 980.45 166.25L981.19 166.61L980.64 167.23C980.33 167.58 972.99 175.69 957.27 177.9C958.16 178.62 960.11 179.82 961.86 180.77L962.64 181.19L961.98 181.78C961.76 181.98 956.45 186.51 937.95 187.58C938.57 188.28 939.61 189.34 940.55 190.25L941.09 190.78L940.47 191.21C940.29 191.34 935.94 194.23 917.28 193.96C918.14 194.87 919.54 196.29 920.85 197.59L921.78 198.51L920.48 198.66C919.82 198.73 905.01 200.34 897.96 197.83L898.74 200.83L898.09 200.96C897.72 201.03 889.25 202.68 882.36 200.85C882.44 201.41 882.6 202.2 882.75 202.89L882.92 203.66L869.8 203.46L869.55 206.98L869.05 207.05C868.72 207.1 861.46 208.08 858.38 208.11L858.35 212.17L847.65 211.96L847.25 215.95L838.59 213.96L838.15 217.41L833.64 215.93C831.28 221.66 826.83 232.27 824.46 237.81C827.2 240.68 839.95 258.16 839.25 272C838.95 277.93 836.27 282.47 831.26 285.51C830.08 289.86 827.83 293.43 824.02 295.6L823.11 296.14ZM824.36 242.52V293.94C837.25 285.07 828.46 256.06 824.66 243.51C824.56 243.17 824.46 242.84 824.36 242.52ZM825.07 240.54C825.3 241.32 825.56 242.19 825.85 243.15C828.69 252.53 834.26 270.9 831.69 283.76C835.57 281.02 837.7 277.13 838.01 272.2C838.75 260.47 829.12 245.88 825.07 240.54ZM824.36 48.2402V234.91C826.92 228.88 830.72 219.8 832.72 214.93L832.94 214.39L837.12 215.76L837.54 212.44L846.17 214.42L846.55 210.69L857.13 210.9L857.16 206.78L857.84 206.85C859.86 207.05 866.51 206.15 868.39 205.89L868.66 202.2L881.39 202.39C880.91 200.05 881.08 199.84 881.24 199.64L881.43 199.41L881.85 199.4L881.94 199.43C887.61 201.21 895 200.22 897.21 199.86L896.1 195.6L897.33 196.22C902.39 198.78 914.94 197.92 919.04 197.56C915.15 193.68 915.19 193.56 915.34 193.13L915.47 192.76L915.87 192.71C931.11 193.04 937.15 191.29 939.05 190.54C936.1 187.64 936.16 187.27 936.2 186.98L936.24 186.66L936.67 186.41L936.81 186.4C951.8 185.67 958.32 182.61 960.39 181.37C955.54 178.64 955.57 177.84 955.59 177.52C955.6 177.21 955.79 176.94 956.1 176.81L956.27 176.76C969.63 175.1 977.08 168.93 979.13 166.98C972.91 163.96 972.95 163.79 973.07 163.23L973.18 162.75L973.64 162.74C983.78 160.28 990.15 152.85 991.89 150.59L985.5 148.32L986.96 147.69C1000.02 142.06 1004.81 131.8 1005.94 128.9C1000.01 128.74 999.56 128.06 999.41 127.83C999.27 127.61 999.24 127.35 999.34 127.11L999.4 126.97L999.52 126.87C1007.06 120.48 1010.33 111.5 1011.21 108.69C1003.83 109.48 954.47 114.54 925.99 111.92C917.55 112.66 908.43 114.51 908.34 114.52C906.69 115.2 891.21 121.41 890.07 121.65C889.97 121.68 889.42 121.89 888.8 122.15C862.16 132.79 847.82 131.88 840.48 129.24C824.93 120.74 827.36 99.5001 829.51 80.7601C831.27 65.2201 832.81 51.7302 824.36 48.2402Z" fill="white"/>
<path d="M999.86 127.97C999.44 127.94 957.49 125.14 926.49 117.27C926.07 117.24 925.42 117.03 924.09 116.58C920.68 115.44 914.32 113.31 908.84 114.42L908.59 113.2C914.41 112.01 920.97 114.22 924.49 115.4C925.4 115.71 926.35 116.02 926.58 116.02L926.73 116.04C957.63 123.9 999.52 126.69 999.94 126.72L999.86 127.97Z" fill="white"/>
<path d="M833.9 215.35L832.7 215C834.16 210.02 838.45 182.69 838.49 182.41L838.55 182.02L838.93 181.91C869.1 172.93 888.09 143.83 888.28 143.54C888.8 142.83 900.56 126.87 905.69 122.82L905.86 122.73C918.55 117.95 984.64 146.49 987.45 147.7L986.95 148.85C986.27 148.56 918.85 119.44 906.39 123.87C901.34 127.92 889.43 144.09 889.31 144.25C889.14 144.51 870.07 173.76 839.67 183C839.12 186.49 835.3 210.56 833.9 215.35Z" fill="white"/>
<path d="M973.37 163.88C972.8 163.49 915.87 125.16 899.97 130.5L899.58 129.32C916.08 123.81 971.72 161.25 974.08 162.85L973.37 163.88Z" fill="white"/>
<path d="M955.93 177.86C955.43 177.42 905.66 133.95 894.18 137.66L893.79 136.47C905.93 132.54 954.68 175.1 956.75 176.92L955.93 177.86Z" fill="white"/>
<path d="M936.36 187.42C936.01 187 900.96 145.46 888.42 145.46C888.34 145.46 888.27 145.46 888.19 145.46L888.14 144.21C888.22 144.21 888.31 144.21 888.4 144.21C901.55 144.21 935.86 184.88 937.32 186.62L936.36 187.42Z" fill="white"/>
<path d="M915.42 193.66C915.2 193.31 893.12 159.08 881.23 153.93L881.73 152.78C893.97 158.08 915.56 191.55 916.47 192.98L915.42 193.66Z" fill="white"/>
<path d="M896.5 197.05C891.85 188.04 878.32 164.54 871.63 163.98L871.73 162.74C880.48 163.47 896.91 195.13 897.6 196.48L896.5 197.05Z" fill="white"/>
<path d="M881.2 200.3C873.92 186.36 865.29 171.18 863.65 170.51C863.65 170.51 863.71 170.53 863.8 170.52L863.6 169.29C865.76 168.94 874.96 185.65 882.31 199.72L881.2 200.3Z" fill="white"/>
<path d="M868.67 203.09C863 190.63 856.26 176.96 854.95 176.15C855.01 176.19 855.19 176.23 855.37 176.12L854.76 175.03C854.95 174.92 855.17 174.9 855.39 174.98C857.36 175.62 866.14 194.49 869.82 202.57L868.67 203.09Z" fill="white"/>
<path d="M857.17 207.59C857.12 207.37 852.63 185.39 847.19 179.9L848.07 179.02C853.78 184.77 858.21 206.43 858.39 207.35L857.17 207.59Z" fill="white"/>
<path d="M837.325 197.546L836.08 197.659L837.503 213.265L838.748 213.152L837.325 197.546Z" fill="white"/>
<path d="M840.08 164.43L839.71 163.24C870.35 153.74 903.47 122.88 911.65 114.93C912.6 113.96 913.34 113.25 913.57 113.03L914.45 113.92C914.4 113.97 913.75 114.64 912.56 115.78C909.9 118.51 906.89 121.98 906.71 123.38L905.47 123.22C905.51 122.88 905.65 122.49 905.87 122.05C892.46 134.23 865.45 156.57 840.08 164.43Z" fill="white"/>
<path d="M839.17 146.99L839.07 145.75C869.45 143.3 913.21 113.27 913.64 112.97L914.35 114C913.91 114.3 869.88 144.52 839.17 146.99Z" fill="white"/>
<path d="M846.51 211.48C846.31 210.69 841.7 192.52 842.04 182.16C841.73 182.27 841.38 182.4 841.1 182.51C839.23 183.21 839.08 183.27 838.74 183.01L838.46 182.8L838.49 182.45C842.58 141.52 832.85 122.5 832.75 122.32L833.85 121.74C833.95 121.93 843.72 140.94 839.82 181.66C840.1 181.56 840.41 181.44 840.65 181.35C842.52 180.65 842.72 180.57 843.06 180.83L843.33 181.03L843.31 181.38C842.67 191.36 847.65 210.99 847.7 211.19L846.51 211.48Z" fill="white"/>
<path d="M826.04 48.0699L824.36 20.52V47.35H823.11V0.039978L824.36 0L827.29 48L826.04 48.0699Z" fill="white"/>
<path d="M823.45 340.16C738.4 340.16 669.2 270.96 669.2 185.91C669.2 184.09 669.23 182.27 669.29 180.49L679.27 180.82C679.22 182.49 679.19 184.2 679.19 185.91C679.19 265.46 743.9 330.18 823.45 330.18C903 330.18 967.72 265.46 967.72 185.91L967.71 183.81H977.69L977.7 185.91C977.7 270.96 908.5 340.16 823.45 340.16Z" fill="white"/>
<path d="M940.93 103.27C915.67 67.19 876.08 44.84 832.29 41.96L832.95 32C879.78 35.08 922.12 58.98 949.12 97.55L940.93 103.27Z" fill="white"/>
<path d="M705.92 101.14L697.85 95.2699C724.87 58.1299 766.55 35.0698 812.2 32.0098L812.87 41.9699C770.17 44.8299 731.19 66.3999 705.92 101.14Z" fill="white"/>
<path d="M1422.41 303.85H1039.78V310.12H1422.41V303.85Z" fill="white"/>
<defs>
<linearGradient id="paint0_linear" x1="690.908" y1="184.794" x2="954.691" y2="184.794" gradientUnits="userSpaceOnUse">
<stop stop-color="#E5E5E5"/>
<stop offset="0.1483" stop-color="#E5E5E5"/>
<stop offset="0.4621" stop-color="#E5E5E5"/>
<stop offset="0.9128" stop-color="#BBBBBB"/>
<stop offset="1" stop-color="#C4C4C4"/>
</linearGradient>
</defs>
</svg>
